<svg data-v-423bf9ae="" xmlns="http://www.w3.org/2000/svg" viewBox="0 0 401.6089942950463 181" class="iconAboveSlogan"><!----><!----><!----><g data-v-423bf9ae="" id="7affa151-ab6a-4a63-bc8f-bf28dd75b5f3" fill="#000000" transform="matrix(6.109979823280842,0,0,6.109979823280842,-1.5274915235093545,91.3299382515284)"><path d="M3.82 1.93L3.82 1.93Q5.87 1.93 6.41 3.21L6.41 3.21Q6.56 3.53 6.56 3.63L6.56 3.63L5.69 3.63L5.69 3.89L6.62 3.89L6.62 3.88Q6.62 3.81 6.56 3.63L6.56 3.63L8.13 3.63L8.13 3.89L6.64 3.89L6.64 3.91Q6.75 4.46 6.80 5.09L6.80 5.09Q6.80 5.13 5.00 5.22L5.00 5.22L5.00 5.21Q5.00 3.58 3.88 3.58L3.88 3.58L3.69 3.58Q2.85 3.58 2.67 4.29L2.67 4.29Q2.52 4.89 2.52 5.87L2.52 5.87L2.52 7.20L2.50 7.40L1.88 7.40L1.88 7.71L2.50 7.71L2.50 10.08L5.14 10.08L5.14 7.62L6.65 7.62L6.65 10.08L5.81 10.08L5.81 11.60L4.05 11.60L4.05 11.73L2.69 11.73L2.69 11.60L1.30 11.60L1.30 10.84L2.22 10.84L2.22 10.51L0.84 10.51L0.84 9.39L0.25 9.39L0.25 8.01L0.56 8.01Q0.54 7.15 0.54 6.66L0.54 6.66Q0.54 4.42 0.76 3.84L0.76 3.84Q0.96 3.17 1.42 2.69L1.42 2.69Q2.23 1.93 3.82 1.93ZM2.63 9.59L2.63 9.59L2.71 9.59L2.71 9.93L2.91 9.93L2.91 10.04L2.63 10.04Q2.60 10.04 2.60 10.00L2.60 10.00L2.60 9.63Q2.60 9.59 2.63 9.59ZM4.69 9.60L4.69 9.59L4.79 9.59Q4.87 9.66 4.87 9.72L4.87 9.72Q4.89 9.72 4.99 9.59L4.99 9.59L5.07 9.59L5.07 9.63Q4.96 9.78 4.96 9.84L4.96 9.84Q4.98 9.84 5.09 10.01L5.09 10.01L5.09 10.04L4.99 10.04L4.87 9.91Q4.81 10.02 4.78 10.04L4.78 10.04L4.68 10.04Q4.71 9.97 4.83 9.80L4.83 9.80L4.69 9.60ZM6.04 10.19L6.04 10.19Q6.21 10.23 6.21 10.28L6.21 10.28L6.21 10.35L6.14 10.35L6.08 10.28L6.01 10.28Q5.97 10.29 5.97 10.32L5.97 10.32L5.97 10.35Q6.23 10.40 6.23 10.46L6.23 10.46L6.23 10.51Q6.23 10.64 6.08 10.64L6.08 10.64L6.01 10.64Q5.92 10.64 5.87 10.55L5.87 10.55L5.87 10.48L5.96 10.48Q5.96 10.56 6.06 10.56L6.06 10.56L6.08 10.56Q6.10 10.56 6.13 10.51L6.13 10.51Q6.13 10.49 5.89 10.40L5.89 10.40L5.88 10.36L5.88 10.28Q5.88 10.23 6.04 10.19ZM7.24 8.85L7.24 1.91L9.19 1.91L9.19 5.94L8.80 5.94L8.80 10.10L11.71 10.10L11.71 10.97L11.14 10.97L11.14 11.17L11.71 11.17L11.71 11.73L9.83 11.73L9.83 11.58L7.25 11.58Q7.24 11.42 7.24 11.33L7.24 11.33L7.24 9.14L7.73 9.14L7.73 8.85L7.24 8.85ZM11.71 11.17L11.71 10.97L12.42 10.97L12.42 11.17L11.71 11.17ZM16.21 1.95L16.21 1.95Q18.31 1.95 18.98 3.42L18.98 3.42Q19.35 4.14 19.35 6.19L19.35 6.19L19.35 6.23L18.63 6.23L18.63 6.56L19.35 6.56L19.35 10.10L18.87 10.10L18.87 11.37L17.92 11.37L17.92 11.73L14.60 11.73L14.60 11.37L14.20 11.37L14.20 10.10L13.34 10.10L13.34 9.10L13.85 9.10L13.85 8.57L13.34 8.57L13.34 9.10L12.13 9.10L12.13 8.57L13.05 8.57Q13.04 7.38 13.04 6.74L13.04 6.74L13.04 5.91Q13.04 3.58 13.82 2.80L13.82 2.80Q14.54 1.95 16.21 1.95ZM15.01 5.32L15.01 5.32L15.03 5.32L15.01 5.35L15.01 6.23L14.28 6.23L14.28 6.56L15.01 6.56Q15.00 8.67 15.00 9.75L15.00 9.75L15.00 10.10L16.63 10.10L16.63 9.56L17.38 9.56L17.38 9.54Q17.38 8.54 17.37 6.75L17.37 6.75Q17.37 6.68 17.38 6.38L17.38 6.38Q17.38 4.45 17.16 4.01L17.16 4.01Q16.93 3.58 16.30 3.58L16.30 3.58L16.06 3.58Q15.32 3.58 15.14 4.24L15.14 4.24Q15.06 4.56 15.01 5.32ZM19.35 6.56L19.35 6.23L20.53 6.23L20.53 6.56L19.35 6.56ZM20.08 6.33L20.08 1.94L21.97 1.94L21.97 7.12L21.08 7.12L21.08 7.39L21.97 7.39L21.97 8.36Q21.97 9.69 22.44 9.91L22.44 9.91Q22.68 10.06 23.04 10.06L23.04 10.06L23.62 10.06L23.62 8.34L24.13 8.34L24.13 1.94L26.00 1.94L26.00 7.96L25.33 7.96L25.33 8.39L26.00 8.39Q25.99 8.61 25.99 8.72L25.99 8.72L25.99 10.64L25.01 10.64L25.01 11.73L20.63 11.73L20.63 10.38L20.23 10.38L20.23 6.33L20.08 6.33ZM21.97 7.39L21.97 7.12L23.04 7.12L23.04 7.39L21.97 7.39ZM26.87 6.62L26.87 1.96L29.85 1.96Q31.71 1.96 32.40 3.22L32.40 3.22Q33.00 4.20 33.00 6.49L33.00 6.49L33.30 6.49L33.30 8.83L30.40 8.83L30.40 8.56L31.31 8.56L31.31 6.49L31.04 6.49L31.04 5.63Q31.04 4.19 30.40 3.79L30.40 3.79Q30.02 3.58 29.19 3.58L29.19 3.58L28.79 3.58L28.79 6.44L29.06 6.44L29.06 8.83L27.10 8.83L27.10 6.62L26.87 6.62ZM26.00 9.13L26.00 8.83L26.88 8.83L26.88 9.13L29.06 9.13L29.06 9.78L30.40 9.78L30.40 9.13L33.30 9.13L33.30 9.78L31.31 9.78L31.31 11.52L29.06 11.52L29.06 11.73L26.90 11.73Q26.87 11.73 26.87 11.70L26.87 11.70L26.87 9.13L26.00 9.13ZM29.06 9.13L29.06 8.83L30.40 8.83L30.40 9.13L29.06 9.13ZM33.30 9.13L33.30 8.83L35.22 8.83L35.22 9.13L33.30 9.13ZM40.28 1.96L40.28 1.96Q41.90 1.96 42.46 3.01L42.46 3.01Q42.84 3.80 42.84 4.56L42.84 4.56L42.83 4.56Q41.71 4.66 41.30 4.66L41.30 4.66Q41.30 4.12 40.97 3.75L40.97 3.75Q40.65 3.57 40.39 3.57L40.39 3.57L40.11 3.57Q39.42 3.57 39.27 4.11L39.27 4.11Q39.23 4.27 39.23 4.35L39.23 4.35L39.23 4.50Q39.23 5.26 40.04 5.61L40.04 5.61Q40.11 5.67 41.16 6.12L41.16 6.12Q41.72 6.38 42.20 6.76L42.20 6.76L42.20 6.77L40.48 6.77L40.48 6.97L42.75 6.97L42.75 7.24L43.03 7.24L43.03 10.21L42.47 10.21L42.47 11.73L38.12 11.73L38.12 10.21L37.10 10.21L37.10 9.18L37.68 9.18L37.68 8.83L37.10 8.83L37.10 8.59L39.09 8.59L39.09 10.21L41.13 10.21L41.13 7.77L39.60 7.77L39.60 6.97L37.71 6.97L37.71 6.77L38.62 6.77L38.62 6.76Q37.42 5.96 37.42 4.50L37.42 4.50L37.42 4.37Q37.42 3.14 38.17 2.51L38.17 2.51Q38.86 1.96 40.28 1.96ZM42.75 6.97L42.75 6.77L43.44 6.77L43.44 6.97L42.75 6.97ZM36.44 9.18L36.44 8.83L37.10 8.83L37.10 9.18L36.44 9.18ZM40.82 8.83L40.82 8.83L41.03 8.83Q41.06 8.83 41.06 8.86L41.06 8.86L41.06 8.91L40.89 8.91L40.89 8.97L41.04 8.97L41.04 9.02Q41.04 9.05 41.02 9.05L41.02 9.05L40.89 9.05L40.89 9.12L41.06 9.12L41.06 9.17Q41.06 9.19 41.03 9.19L41.03 9.19L40.82 9.19Q40.79 9.19 40.79 9.17L40.79 9.17L40.79 8.86Q40.80 8.83 40.82 8.83ZM40.74 9.31L40.74 9.31L40.80 9.31Q40.82 9.31 40.92 9.43L40.92 9.43Q40.97 9.31 41.00 9.31L41.00 9.31L41.04 9.31Q41.08 9.31 41.08 9.34L41.08 9.34Q40.93 9.50 40.93 9.68L40.93 9.68L40.89 9.68Q40.85 9.68 40.84 9.49L40.84 9.49Q40.74 9.36 40.74 9.31ZM40.69 9.79L40.69 9.79L40.76 9.79Q40.80 9.79 40.84 10.00L40.84 10.00L40.87 10.00Q40.91 9.79 40.95 9.79L40.95 9.79L41.02 9.79Q41.04 9.80 41.04 9.82L41.04 9.82L41.04 10.12Q41.04 10.16 41.02 10.16L41.02 10.16L40.97 10.16L40.97 9.95L40.95 9.95L40.89 10.16L40.84 10.16Q40.80 10.16 40.76 9.95L40.76 9.95L40.74 9.95L40.74 10.16L40.69 10.16Q40.66 10.16 40.66 10.12L40.66 10.12L40.66 9.82Q40.67 9.79 40.69 9.79ZM42.57 10.62L42.57 10.29L42.73 10.29Q42.86 10.29 42.86 10.42L42.86 10.42Q42.83 10.42 42.83 10.45L42.83 10.45Q42.88 10.51 42.88 10.56L42.88 10.56Q42.83 10.66 42.70 10.66L42.70 10.66L42.60 10.66Q42.57 10.66 42.57 10.62L42.57 10.62ZM42.76 10.37L42.66 10.37L42.66 10.43L42.73 10.43Q42.76 10.43 42.76 10.40L42.76 10.40L42.76 10.37ZM42.75 10.49L42.66 10.49L42.66 10.58L42.75 10.58Q42.78 10.58 42.78 10.54L42.78 10.54L42.78 10.53Q42.78 10.49 42.75 10.49L42.75 10.49ZM42.57 11.10L42.57 10.77L42.64 10.77Q42.67 10.77 42.78 10.99L42.78 10.99L42.79 10.99L42.79 10.77L42.88 10.77L42.88 11.10Q42.88 11.14 42.84 11.14L42.84 11.14L42.81 11.14Q42.79 11.14 42.65 10.93L42.65 10.93L42.65 11.10Q42.65 11.14 42.62 11.14L42.62 11.14L42.60 11.14Q42.57 11.14 42.57 11.10L42.57 11.10ZM44.02 1.96L44.02 1.96L45.94 1.96Q45.94 3.37 46.43 4.35L46.43 4.35Q46.96 5.64 47.15 6.39L47.15 6.39L47.15 6.41L47.17 6.41Q47.41 5.50 48.19 3.62L48.19 3.62Q48.38 2.72 48.38 1.96L48.38 1.96L50.19 1.96Q50.03 3.43 49.78 4.13L49.78 4.13L48.69 6.59L48.04 6.59L48.04 8.28L47.04 8.28L47.04 8.61L48.04 8.61L48.04 11.73L46.16 11.73Q46.14 11.73 46.14 11.70L46.14 11.70L46.14 10.17L45.83 10.17L45.83 7.46L46.40 7.46L46.40 7.21L45.79 7.21Q45.71 7.12 44.65 4.67L44.65 4.67Q44.21 3.68 44.21 3.49L44.21 3.49L45.01 3.49L45.01 3.14L44.15 3.14Q44.02 2.06 44.02 1.96ZM42.85 3.49L42.85 3.14L44.15 3.14L44.19 3.49L42.85 3.49ZM48.04 8.61L48.04 8.28L48.84 8.28L48.84 8.61L48.04 8.61ZM50.81 1.96L50.81 1.96L52.81 1.96Q52.85 1.96 53.45 3.53L53.45 3.53Q53.50 3.59 54.71 6.62L54.71 6.62L55.22 6.62L55.22 1.96L56.96 1.96L56.96 7.51L57.16 7.51L57.16 9.67L56.46 9.67L56.46 10.08L57.16 10.08L57.16 11.37L54.54 11.37L54.54 9.73L54.08 9.73Q53.14 7.44 52.81 6.56L52.81 6.56L52.81 4.92L52.56 4.92L52.56 9.93L52.17 9.93L52.17 11.66L50.53 11.66L50.53 7.94L50.83 7.94L50.83 7.92Q50.81 3.09 50.81 1.96ZM54.67 6.62L53.75 6.62L53.75 6.98L54.84 6.98Q54.71 6.62 54.67 6.62L54.67 6.62ZM56.03 6.62L55.23 6.62L55.23 6.98L54.85 6.98Q55.20 7.85 55.27 8.11L55.27 8.11L55.28 8.11L55.28 8.07Q55.23 7.18 55.23 6.98L55.23 6.98L56.03 6.98L56.03 6.62ZM54.54 11.73L54.54 11.55L57.71 11.55L57.71 11.73L54.54 11.73ZM61.67 1.93L61.67 1.93Q63.72 1.93 64.24 3.22L64.24 3.22Q64.40 3.53 64.40 3.63L64.40 3.63L63.54 3.63L63.54 3.89L64.47 3.89L64.47 3.88Q64.47 3.81 64.40 3.63L64.40 3.63L65.98 3.63L65.98 3.89L64.48 3.89L64.48 3.91Q64.60 4.46 64.65 5.09L64.65 5.09Q64.65 5.13 62.85 5.22L62.85 5.22L62.85 5.21Q62.85 3.58 61.74 3.58L61.74 3.58L61.53 3.58Q60.70 3.58 60.51 4.29L60.51 4.29Q60.37 4.89 60.37 5.87L60.37 5.87L60.37 7.21L60.35 7.40L59.72 7.40L59.72 7.71L60.35 7.71L60.35 10.08L62.98 10.08L62.98 7.62L64.50 7.62L64.50 10.08L63.66 10.08L63.66 11.60L61.90 11.60L61.90 11.73L60.53 11.73L60.53 11.60L59.14 11.60L59.14 10.84L60.07 10.84L60.07 10.51L58.68 10.51L58.68 9.39L58.09 9.39L58.09 8.00L58.41 8.00Q58.39 7.16 58.39 6.66L58.39 6.66Q58.39 4.42 58.60 3.84L58.60 3.84Q58.81 3.17 59.26 2.69L59.26 2.69Q60.07 1.93 61.67 1.93Z"></path></g><defs data-v-423bf9ae=""><linearGradient data-v-423bf9ae="" gradientTransform="rotate(25)" id="1de49826-d057-4eed-bcf9-cadce40b348f" x1="0%" y1="0%" x2="100%" y2="0%"><stop data-v-423bf9ae="" offset="0%" style="stop-color: rgb(233, 13, 202); stop-opacity: 1;"></stop><stop data-v-423bf9ae="" offset="100%" style="stop-color: rgb(21, 54, 241); stop-opacity: 1;"></stop></linearGradient></defs><g data-v-423bf9ae="" id="8e8c99de-5e33-4bc0-94ed-cac9917d3093" transform="matrix(1.6942132677237787,0,0,1.6942132677237787,116.31922097216291,-29.027936576668694)" stroke="none" fill="url(#1de49826-d057-4eed-bcf9-cadce40b348f)"><path d="M1.028 59.63h.006l5.819.011 20.26.039 5.818.012 7.969.016.915.002c.3.016.604.025.908.025v-.025l1.822.004.044-.006 6.146.017c2.443 6.268 8.539 10.723 15.66 10.723 7.097 0 13.178-4.426 15.635-10.66l1.146.002 11.702.021.427-.429a16.742 16.742 0 004.694-11.632c0-8.281-6.026-15.179-13.922-16.55l-.05-.007c-1.396-7.869-8.276-13.867-16.539-13.867-7.784 0-14.346 5.323-16.245 12.52a16.716 16.716 0 00-10.521-3.716c-8.367 0-15.324 6.149-16.594 14.165a16.698 16.698 0 00-9.136-2.712C7.728 37.583.19 45.121.19 54.385c0 1.824.296 3.582.837 5.227l.001.018zm41.696-28.126c6.301 0 11.426 5.125 11.426 11.427h5.377c0-.313-.012-.624-.027-.933-.006-.089-.016-.177-.021-.266a14.878 14.878 0 00-.059-.67l-.031-.246a17.041 17.041 0 00-.106-.724l-.021-.124a16.679 16.679 0 00-.635-2.45l-.562-3.392c0-6.301 5.125-11.427 11.427-11.427 5.312 0 9.788 3.644 11.063 8.563a.7.7 0 01.051-.007 11.364 11.364 0 01.039 5.357 11.428 11.428 0 015.459.084c4.899 1.288 8.522 5.754 8.522 11.051 0 2.549-.84 4.905-2.257 6.81l-14.596-.02c.004.012.011.023.015.033a10.829 10.829 0 01-.843 3.457c-1.723 4.129-5.803 7.039-10.549 7.039-6.019 0-10.959-4.674-11.393-10.582v-.002c-.002-.021-.005-.041-.006-.062l-5.385-.011.004.064-7.484-.017c-6.028-.313-10.837-5.427-10.837-11.53.001-6.296 5.127-11.422 11.429-11.422zm-25.73 11.452c4.318 0 8.083 2.408 10.025 5.95l-.027-.08a16.823 16.823 0 003.507 5.613h-.047l-2.032-.004-22.853-.044v-.008c0-6.301 5.126-11.427 11.427-11.427zm9.777 5.239l.021.06a.714.714 0 01-.021-.06z"></path></g><!----><g data-v-423bf9ae="" id="d970db95-d086-4d22-9ee3-8d85f80624f4" fill="#000000" transform="matrix(0.4060594227519114,0,0,0.4060594227519114,51.293477405337995,205.41156341478137)"><path d="M7.20 9.21L7.20 9.21Q7.66 9.21 7.92 9.46Q8.18 9.72 8.18 10.16L8.18 10.16Q8.18 10.28 8.15 10.39Q8.13 10.51 8.11 10.60L8.11 10.60Q7.92 10.57 7.70 10.55Q7.48 10.53 7.17 10.53L7.17 10.53Q6.57 10.53 5.95 10.63Q5.33 10.74 4.77 10.81L4.77 10.81Q4.45 11.55 4.19 12.24Q3.92 12.94 3.73 13.51Q3.54 14.08 3.44 14.50Q3.33 14.92 3.32 15.13L3.32 15.13Q4.45 14.90 5.61 14.73Q6.76 14.56 8.04 14.48L8.04 14.48Q8.19 14.71 8.29 14.99Q8.40 15.27 8.40 15.60L8.40 15.60Q8.40 15.68 8.40 15.78Q8.40 15.88 8.37 15.97L8.37 15.97Q7.98 15.96 7.55 15.95Q7.11 15.95 6.41 15.95L6.41 15.95Q5.95 15.95 5.54 15.97Q5.12 15.99 4.70 16.03Q4.28 16.07 3.81 16.14Q3.35 16.21 2.76 16.31L2.76 16.31Q2.11 16.06 1.51 15.08L1.51 15.08Q1.75 14.57 2.18 13.54Q2.60 12.52 3.26 10.79L3.26 10.79Q2.63 10.60 2.44 10.09L2.44 10.09Q2.51 10.02 2.84 9.92Q3.18 9.81 3.67 9.70L3.67 9.70Q3.88 9.16 4.03 8.75Q4.17 8.34 4.28 7.99Q4.40 7.63 4.49 7.29Q4.58 6.94 4.66 6.54L4.66 6.54Q4.17 6.51 3.89 6.27Q3.61 6.02 3.61 5.63L3.61 5.63Q3.61 5.52 3.65 5.36Q3.68 5.21 3.72 5.10L3.72 5.10Q4.00 5.14 4.26 5.15Q4.52 5.17 4.94 5.17L4.94 5.17Q5.82 5.17 6.59 5.12Q7.36 5.07 7.99 5.01Q8.61 4.96 9.06 4.91Q9.51 4.86 9.74 4.86L9.74 4.86Q10.07 4.86 10.32 5.19Q10.57 5.53 10.70 6.15L10.70 6.15Q10.26 6.10 9.99 6.09Q9.72 6.08 9.51 6.08L9.51 6.08Q8.74 6.08 8.10 6.15Q7.46 6.23 6.87 6.31L6.87 6.31Q6.79 6.44 6.69 6.64Q6.58 6.83 6.41 7.18Q6.24 7.53 6.00 8.06Q5.75 8.60 5.40 9.39L5.40 9.39Q5.94 9.31 6.41 9.26Q6.87 9.21 7.20 9.21ZM22.15 14.38L22.15 14.38Q22.50 14.98 22.50 15.54L22.50 15.54Q22.50 15.67 22.48 15.77Q22.46 15.88 22.43 15.99L22.43 15.99Q22.19 15.96 21.93 15.95Q21.67 15.93 21.39 15.93L21.39 15.93Q21.06 15.93 20.71 15.95Q20.37 15.97 19.95 16.02Q19.53 16.06 19.01 16.13Q18.49 16.20 17.81 16.31L17.81 16.31Q17.49 16.20 17.16 15.87Q16.84 15.54 16.56 15.08L16.56 15.08Q16.70 14.77 16.91 14.31Q17.12 13.86 17.40 13.21Q17.68 12.56 18.02 11.68Q18.37 10.81 18.76 9.66L18.76 9.66Q19.01 8.90 19.19 8.33Q19.38 7.76 19.52 7.22Q19.67 6.68 19.81 6.09Q19.95 5.50 20.12 4.73L20.12 4.73Q20.68 4.84 21.09 5.14Q21.50 5.45 21.88 6.01L21.88 6.01Q21.77 6.19 21.59 6.59Q21.41 7 21.16 7.58Q20.92 8.16 20.62 8.90Q20.33 9.63 20.01 10.47L20.01 10.47Q19.70 11.30 19.40 12.03Q19.11 12.75 18.88 13.34Q18.65 13.93 18.51 14.35Q18.37 14.77 18.37 14.98L18.37 14.98Q18.59 14.97 18.77 14.95Q18.96 14.94 19.15 14.90Q19.35 14.87 19.58 14.82Q19.81 14.77 20.13 14.69L20.13 14.69Q20.41 14.62 20.65 14.57Q20.89 14.52 21.12 14.48Q21.35 14.45 21.59 14.43Q21.84 14.41 22.15 14.38ZM36.57 9.21L36.57 9.21Q37.03 9.21 37.29 9.46Q37.55 9.72 37.55 10.16L37.55 10.16Q37.55 10.28 37.53 10.39Q37.51 10.51 37.48 10.60L37.48 10.60Q37.30 10.57 37.07 10.55Q36.85 10.53 36.54 10.53L36.54 10.53Q35.94 10.53 35.32 10.63Q34.71 10.74 34.15 10.81L34.15 10.81Q33.82 11.55 33.56 12.24Q33.29 12.94 33.10 13.51Q32.91 14.08 32.81 14.50Q32.70 14.92 32.69 15.13L32.69 15.13Q33.82 14.90 34.98 14.73Q36.13 14.56 37.41 14.48L37.41 14.48Q37.56 14.71 37.67 14.99Q37.77 15.27 37.77 15.60L37.77 15.60Q37.77 15.68 37.77 15.78Q37.77 15.88 37.74 15.97L37.74 15.97Q37.35 15.96 36.92 15.95Q36.48 15.95 35.78 15.95L35.78 15.95Q35.32 15.95 34.91 15.97Q34.50 15.99 34.08 16.03Q33.66 16.07 33.19 16.14Q32.72 16.21 32.13 16.31L32.13 16.31Q31.49 16.06 30.88 15.08L30.88 15.08Q31.12 14.57 31.55 13.54Q31.98 12.52 32.63 10.79L32.63 10.79Q32.00 10.60 31.81 10.09L31.81 10.09Q31.88 10.02 32.21 9.92Q32.55 9.81 33.04 9.70L33.04 9.70Q33.25 9.16 33.40 8.75Q33.54 8.34 33.66 7.99Q33.77 7.63 33.86 7.29Q33.95 6.94 34.03 6.54L34.03 6.54Q33.54 6.51 33.26 6.27Q32.98 6.02 32.98 5.63L32.98 5.63Q32.98 5.52 33.02 5.36Q33.05 5.21 33.10 5.10L33.10 5.10Q33.38 5.14 33.63 5.15Q33.89 5.17 34.31 5.17L34.31 5.17Q35.20 5.17 35.97 5.12Q36.74 5.07 37.36 5.01Q37.98 4.96 38.43 4.91Q38.88 4.86 39.12 4.86L39.12 4.86Q39.44 4.86 39.69 5.19Q39.94 5.53 40.07 6.15L40.07 6.15Q39.63 6.10 39.36 6.09Q39.09 6.08 38.88 6.08L38.88 6.08Q38.11 6.08 37.47 6.15Q36.83 6.23 36.25 6.31L36.25 6.31Q36.16 6.44 36.06 6.64Q35.95 6.83 35.78 7.18Q35.62 7.53 35.37 8.06Q35.13 8.60 34.78 9.39L34.78 9.39Q35.31 9.31 35.78 9.26Q36.25 9.21 36.57 9.21ZM50.76 16.07L50.76 16.07Q50.44 16.24 50.08 16.24L50.08 16.24Q49.63 16.18 49.22 16.02Q48.80 15.85 48.61 15.61L48.61 15.61Q48.50 14.92 48.43 14.35Q48.36 13.78 48.31 13.27Q48.27 12.75 48.26 12.29Q48.24 11.82 48.24 11.34L48.24 11.34Q48.24 10.71 48.26 10.01Q48.27 9.31 48.29 8.52Q48.31 7.73 48.33 6.82Q48.34 5.92 48.34 4.86L48.34 4.86Q48.52 4.86 48.89 4.96Q49.25 5.07 49.61 5.21Q49.97 5.35 50.25 5.49Q50.53 5.64 50.55 5.74L50.55 5.74Q50.41 6.13 50.31 6.76Q50.20 7.39 50.14 8.16Q50.08 8.93 50.05 9.79Q50.02 10.64 50.02 11.48L50.02 11.48Q50.02 12.11 50.04 12.61Q50.05 13.10 50.07 13.50Q50.09 13.90 50.13 14.25Q50.18 14.59 50.23 14.92L50.23 14.92Q50.62 13.73 51.09 12.54Q51.56 11.35 52.06 10.25Q52.56 9.16 53.05 8.20Q53.54 7.25 53.98 6.54Q54.42 5.84 54.77 5.43Q55.12 5.01 55.34 4.98L55.34 4.98Q55.50 5.01 55.67 5.10Q55.85 5.19 56 5.32Q56.15 5.45 56.28 5.60Q56.41 5.75 56.48 5.91L56.48 5.91Q55.96 6.09 55.36 6.76Q54.77 7.43 54.17 8.38Q53.56 9.32 53.00 10.44Q52.43 11.55 51.97 12.61Q51.52 13.68 51.20 14.60Q50.88 15.53 50.76 16.07ZM62.34 16.24L62.34 16.24Q61.67 16.04 61.41 15.85Q61.15 15.65 61.15 15.36L61.15 15.36Q61.15 15.13 61.28 14.73Q61.40 14.32 61.65 13.77Q61.89 13.22 62.24 12.54Q62.58 11.87 63.01 11.10L63.01 11.10Q62.65 11.09 62.36 11.08Q62.08 11.07 61.89 11.07L61.89 11.07Q61.98 10.86 62.37 10.71Q62.76 10.56 63.41 10.44L63.41 10.44Q63.95 9.53 64.57 8.71Q65.20 7.88 65.83 7.19Q66.46 6.50 67.09 5.97Q67.72 5.45 68.29 5.14L68.29 5.14Q68.31 5.04 68.31 4.97Q68.32 4.90 68.32 4.87L68.32 4.87Q68.52 4.87 68.84 4.97Q69.17 5.07 69.49 5.21Q69.80 5.35 70.05 5.49Q70.29 5.64 70.32 5.74L70.32 5.74Q69.86 6.55 69.41 8.17Q68.96 9.79 68.67 12.04L68.67 12.04Q68.60 12.60 68.55 13.31Q68.50 14.03 68.50 14.91L68.50 14.91Q68.50 15.22 68.50 15.54Q68.50 15.86 68.53 16.21L68.53 16.21Q68.50 16.23 68.47 16.23Q68.45 16.23 68.36 16.23L68.36 16.23Q68.17 16.23 67.91 16.16Q67.65 16.10 67.40 16.01Q67.16 15.92 66.98 15.81Q66.81 15.69 66.77 15.61L66.77 15.61Q66.75 15.43 66.75 15.25Q66.75 15.08 66.75 14.88L66.75 14.88Q66.75 14.01 66.81 13.12Q66.88 12.22 67.03 11.27L67.03 11.27Q66.84 11.26 66.51 11.23Q66.19 11.21 65.79 11.20Q65.39 11.19 64.94 11.16Q64.48 11.14 64.05 11.13L64.05 11.13Q63.71 11.76 63.42 12.38Q63.13 13.01 62.92 13.64L62.92 13.64Q62.68 14.31 62.53 14.98Q62.38 15.65 62.34 16.24ZM67.75 7.83L67.75 7.83Q67.80 7.63 67.88 7.29Q67.96 6.94 68.03 6.57L68.03 6.57Q67.68 6.69 67.25 7.03Q66.82 7.36 66.37 7.86Q65.91 8.36 65.44 8.98Q64.97 9.60 64.54 10.30L64.54 10.30Q65.72 10.21 67.21 10.18L67.21 10.18Q67.33 9.59 67.46 9.01Q67.59 8.43 67.75 7.83ZM79.90 6.69L79.90 6.69Q79.34 6.69 79.04 6.38Q78.74 6.06 78.74 5.61L78.74 5.61Q78.74 5.50 78.77 5.35Q78.81 5.19 78.86 5.08L78.86 5.08Q79.04 5.17 79.40 5.20Q79.76 5.24 80.23 5.24L80.23 5.24Q80.95 5.24 81.85 5.17Q82.75 5.11 83.58 5.04Q84.41 4.97 85.04 4.91Q85.67 4.84 85.85 4.84L85.85 4.84Q86.37 4.84 86.60 5.23Q86.83 5.61 86.94 6.26L86.94 6.26Q86.58 6.23 86.22 6.21Q85.86 6.19 85.61 6.19L85.61 6.19Q85.16 6.19 84.71 6.22Q84.25 6.24 83.79 6.30L83.79 6.30Q83.59 6.71 83.36 7.26Q83.12 7.81 82.89 8.41Q82.66 9.02 82.45 9.61Q82.24 10.21 82.08 10.68L82.08 10.68Q81.77 11.61 81.54 12.39Q81.31 13.17 81.14 13.85Q80.96 14.53 80.84 15.15Q80.71 15.76 80.61 16.35L80.61 16.35Q79.67 16.21 79.04 15.18L79.04 15.18Q79.16 14.74 79.32 14.23Q79.48 13.72 79.70 13.07Q79.91 12.42 80.21 11.59Q80.50 10.77 80.88 9.72L80.88 9.72Q81.02 9.32 81.17 8.90Q81.33 8.47 81.47 8.05Q81.62 7.63 81.74 7.24Q81.86 6.85 81.94 6.52L81.94 6.52Q81.35 6.59 80.83 6.64Q80.30 6.69 79.90 6.69ZM98.14 9.21L98.14 9.21Q98.60 9.21 98.86 9.46Q99.12 9.72 99.12 10.16L99.12 10.16Q99.12 10.28 99.10 10.39Q99.08 10.51 99.05 10.60L99.05 10.60Q98.87 10.57 98.64 10.55Q98.42 10.53 98.11 10.53L98.11 10.53Q97.51 10.53 96.89 10.63Q96.28 10.74 95.72 10.81L95.72 10.81Q95.40 11.55 95.13 12.24Q94.86 12.94 94.67 13.51Q94.49 14.08 94.38 14.50Q94.28 14.92 94.26 15.13L94.26 15.13Q95.40 14.90 96.55 14.73Q97.71 14.56 98.98 14.48L98.98 14.48Q99.13 14.71 99.24 14.99Q99.34 15.27 99.34 15.60L99.34 15.60Q99.34 15.68 99.34 15.78Q99.34 15.88 99.32 15.97L99.32 15.97Q98.92 15.96 98.49 15.95Q98.06 15.95 97.36 15.95L97.36 15.95Q96.89 15.95 96.48 15.97Q96.07 15.99 95.65 16.03Q95.23 16.07 94.76 16.14Q94.29 16.21 93.70 16.31L93.70 16.31Q93.06 16.06 92.46 15.08L92.46 15.08Q92.69 14.57 93.12 13.54Q93.55 12.52 94.21 10.79L94.21 10.79Q93.58 10.60 93.38 10.09L93.38 10.09Q93.45 10.02 93.79 9.92Q94.12 9.81 94.61 9.70L94.61 9.70Q94.82 9.16 94.97 8.75Q95.12 8.34 95.23 7.99Q95.34 7.63 95.43 7.29Q95.52 6.94 95.61 6.54L95.61 6.54Q95.12 6.51 94.84 6.27Q94.56 6.02 94.56 5.63L94.56 5.63Q94.56 5.52 94.59 5.36Q94.63 5.21 94.67 5.10L94.67 5.10Q94.95 5.14 95.21 5.15Q95.47 5.17 95.89 5.17L95.89 5.17Q96.77 5.17 97.54 5.12Q98.31 5.07 98.93 5.01Q99.55 4.96 100.00 4.91Q100.45 4.86 100.69 4.86L100.69 4.86Q101.01 4.86 101.26 5.19Q101.51 5.53 101.64 6.15L101.64 6.15Q101.21 6.10 100.93 6.09Q100.66 6.08 100.45 6.08L100.45 6.08Q99.68 6.08 99.04 6.15Q98.41 6.23 97.82 6.31L97.82 6.31Q97.73 6.44 97.63 6.64Q97.52 6.83 97.36 7.18Q97.19 7.53 96.94 8.06Q96.70 8.60 96.35 9.39L96.35 9.39Q96.88 9.31 97.35 9.26Q97.82 9.21 98.14 9.21ZM123.38 10.35L123.38 10.35Q124.43 9.20 125.26 7.91Q126.10 6.62 126.81 5.01L126.81 5.01Q127.18 5.05 127.51 5.21Q127.85 5.36 128.04 5.56L128.04 5.56Q127.27 6.48 126.65 7.24Q126.03 7.99 125.51 8.66Q124.99 9.32 124.55 9.93Q124.11 10.54 123.69 11.16L123.69 11.16Q123.48 11.87 123.30 12.60Q123.12 13.33 122.98 13.99Q122.84 14.66 122.76 15.22Q122.68 15.79 122.68 16.20L122.68 16.20Q122.53 16.20 122.19 16.14Q121.86 16.07 121.51 15.99Q121.16 15.90 120.87 15.82Q120.58 15.74 120.53 15.68L120.53 15.68Q120.75 15.30 120.97 14.75Q121.18 14.20 121.39 13.59Q121.60 12.98 121.80 12.36Q122.00 11.73 122.16 11.20L122.16 11.20Q121.81 10.11 121.48 9.15Q121.16 8.19 120.85 7.41Q120.54 6.64 120.26 6.08Q119.98 5.52 119.73 5.22L119.73 5.22Q119.87 5.17 120.15 5.11Q120.44 5.05 120.78 5.00Q121.13 4.94 121.48 4.91Q121.84 4.87 122.12 4.86L122.12 4.86Q122.12 5.21 122.18 5.71Q122.25 6.22 122.35 6.79Q122.46 7.36 122.60 7.95Q122.74 8.54 122.88 9.03Q123.02 9.52 123.15 9.88Q123.28 10.23 123.38 10.35ZM140.03 4.98L140.03 4.98Q140.29 5.10 140.57 5.27Q140.85 5.45 141.09 5.63Q141.33 5.81 141.49 5.98Q141.65 6.16 141.67 6.27L141.67 6.27Q141.43 6.22 141.19 6.20Q140.95 6.17 140.76 6.17L140.76 6.17Q140.13 6.17 139.50 6.48Q138.88 6.79 138.32 7.32Q137.76 7.85 137.28 8.57Q136.81 9.28 136.46 10.09Q136.12 10.91 135.93 11.77Q135.73 12.64 135.73 13.48L135.73 13.48Q135.73 14.57 136.09 15.11Q136.46 15.64 137.16 15.64L137.16 15.64Q137.49 15.64 137.89 15.51Q138.28 15.37 138.68 15.13Q139.09 14.90 139.48 14.56Q139.87 14.22 140.21 13.82L140.21 13.82Q140.70 13.23 141.09 12.48Q141.48 11.73 141.76 10.89Q142.03 10.05 142.18 9.16Q142.32 8.27 142.32 7.42L142.32 7.42Q142.32 7.08 142.31 6.85Q142.30 6.62 142.27 6.46Q142.25 6.30 142.24 6.20Q142.23 6.10 142.21 6.03L142.21 6.03Q142.38 6.12 142.58 6.24Q142.79 6.36 142.96 6.59Q143.14 6.82 143.25 7.20Q143.37 7.57 143.37 8.18L143.37 8.18Q143.37 9.16 143.14 10.10Q142.91 11.05 142.50 11.90Q142.09 12.75 141.53 13.50Q140.97 14.24 140.32 14.80L140.32 14.80Q139.48 15.54 138.53 15.95Q137.58 16.35 136.70 16.35L136.70 16.35Q135.41 16.35 134.73 15.53Q134.05 14.71 134.05 13.12L134.05 13.12Q134.05 12.26 134.24 11.31Q134.43 10.36 134.77 9.44Q135.11 8.51 135.59 7.68Q136.07 6.85 136.63 6.21Q137.20 5.57 137.85 5.19Q138.50 4.82 139.19 4.82L139.19 4.82Q139.41 4.82 139.61 4.85Q139.80 4.89 140.03 4.98ZM156.07 5.75L156.07 5.75Q155.46 6.58 154.95 7.57Q154.45 8.57 154.09 9.61Q153.73 10.65 153.54 11.67Q153.36 12.68 153.36 13.57L153.36 13.57Q153.36 14.66 153.68 15.15Q154.00 15.64 154.78 15.64L154.78 15.64Q155.69 15.64 156.38 15.00Q157.07 14.36 157.67 13.24L157.67 13.24Q158.06 12.52 158.34 11.65Q158.62 10.78 158.79 9.86Q158.97 8.95 159.05 8.02Q159.14 7.08 159.14 6.23L159.14 6.23Q159.14 5.68 159.12 5.43Q159.11 5.18 159.08 5.03L159.08 5.03Q159.12 5.03 159.29 5.05Q159.46 5.08 159.68 5.12Q159.89 5.17 160.11 5.24Q160.33 5.31 160.48 5.39L160.48 5.39Q160.41 6.45 160.22 7.59Q160.03 8.72 159.73 9.83Q159.42 10.93 159.01 11.96Q158.61 12.98 158.10 13.79L158.10 13.79Q157.36 14.99 156.44 15.67Q155.51 16.35 154.25 16.35L154.25 16.35Q152.96 16.35 152.25 15.60Q151.54 14.85 151.54 13.33L151.54 13.33Q151.54 12.45 151.73 11.33Q151.93 10.22 152.26 9.07Q152.59 7.91 153.02 6.81Q153.45 5.71 153.93 4.84L153.93 4.84Q154.17 4.86 154.49 4.94Q154.81 5.03 155.12 5.16Q155.43 5.29 155.69 5.45Q155.95 5.61 156.07 5.75ZM176.97 7.46L176.97 7.46Q176.97 8.13 176.67 8.73Q176.37 9.32 175.84 9.79Q175.31 10.26 174.59 10.58Q173.88 10.91 173.04 11.02L173.04 11.02Q173.25 11.65 173.55 12.31Q173.85 12.98 174.20 13.59Q174.55 14.21 174.93 14.73Q175.31 15.25 175.67 15.58L175.67 15.58Q175.60 15.72 175.47 15.86Q175.34 16.00 175.16 16.12Q174.99 16.24 174.80 16.32Q174.61 16.39 174.44 16.39L174.44 16.39Q174.13 16.39 173.85 16.10Q173.57 15.81 173.28 15.17Q173.00 14.53 172.68 13.52Q172.37 12.50 171.99 11.07L171.99 11.07Q171.84 11.07 171.68 11.07Q171.53 11.07 171.44 11.05L171.44 11.05Q171.35 10.99 171.23 10.85L171.23 10.85Q170.86 11.66 170.56 12.38Q170.27 13.09 170.04 13.76Q169.81 14.42 169.63 15.04Q169.46 15.67 169.33 16.31L169.33 16.31Q168.85 16.20 168.50 15.90Q168.15 15.61 167.85 15.08L167.85 15.08Q167.90 14.95 167.97 14.83Q168.03 14.71 168.13 14.50Q168.22 14.28 168.37 13.94Q168.52 13.61 168.76 13.05Q169.01 12.49 169.35 11.68Q169.69 10.86 170.18 9.70L170.18 9.70Q170.41 9.18 170.57 8.79Q170.73 8.40 170.86 8.04Q170.98 7.69 171.09 7.33Q171.19 6.97 171.30 6.51L171.30 6.51Q170.66 6.73 170.11 7.01Q169.55 7.28 169.19 7.59L169.19 7.59Q169.06 7.50 168.93 7.34Q168.80 7.17 168.69 6.96Q168.57 6.76 168.49 6.55Q168.41 6.34 168.39 6.17L168.39 6.17Q168.81 5.89 169.42 5.66Q170.03 5.42 170.72 5.24Q171.40 5.07 172.12 4.97Q172.83 4.87 173.45 4.87L173.45 4.87Q175.13 4.87 176.05 5.56Q176.97 6.26 176.97 7.46ZM173.39 6.02L173.56 6.29Q173.46 6.41 173.25 6.79Q173.04 7.17 172.77 7.69Q172.49 8.22 172.19 8.83Q171.89 9.45 171.61 10.05L171.61 10.05Q172.66 10.05 173.54 9.86Q174.43 9.66 175.07 9.30Q175.71 8.95 176.07 8.46Q176.43 7.98 176.43 7.39L176.43 7.39Q176.43 6.69 175.92 6.32Q175.42 5.95 174.37 5.95L174.37 5.95Q174.13 5.95 173.89 5.97Q173.66 5.99 173.39 6.02L173.39 6.02ZM195.03 12.43L195.03 12.43Q195.03 11.45 195.26 10.51Q195.50 9.56 195.92 8.71Q196.34 7.87 196.92 7.16Q197.50 6.45 198.19 5.94Q198.88 5.42 199.67 5.13Q200.45 4.84 201.28 4.84L201.28 4.84Q202.24 4.84 202.78 5.25Q203.32 5.66 203.32 6.38L203.32 6.38Q203.32 6.66 203.25 6.96Q203.17 7.25 203.02 7.54Q202.87 7.83 202.68 8.09Q202.48 8.36 202.24 8.55L202.24 8.55Q201.88 8.50 201.61 8.22Q201.35 7.95 201.28 7.59L201.28 7.59Q201.77 7.18 202.06 6.74Q202.34 6.30 202.34 5.94L202.34 5.94Q202.34 5.32 201.57 5.32L201.57 5.32Q201.25 5.32 200.91 5.45Q200.56 5.59 200.21 5.82Q199.86 6.06 199.53 6.40Q199.21 6.73 198.93 7.14L198.93 7.14Q196.98 9.94 196.98 12.87L196.98 12.87Q196.98 13.90 197.30 14.53Q197.62 15.16 198.16 15.27L198.16 15.27Q198.76 15.13 199.68 14.50Q200.61 13.87 201.70 12.87L201.70 12.87Q201.84 13.01 201.87 13.16L201.87 13.16Q201.46 13.69 201.03 14.18Q200.59 14.67 200.16 15.08Q199.74 15.48 199.32 15.79Q198.91 16.10 198.56 16.27L198.56 16.27Q196.83 16.24 195.93 15.27Q195.03 14.31 195.03 12.43ZM216.37 4.98L216.37 4.98Q216.64 5.10 216.92 5.27Q217.20 5.45 217.43 5.63Q217.67 5.81 217.83 5.98Q217.99 6.16 218.01 6.27L218.01 6.27Q217.77 6.22 217.53 6.20Q217.29 6.17 217.10 6.17L217.10 6.17Q216.47 6.17 215.84 6.48Q215.22 6.79 214.66 7.32Q214.10 7.85 213.63 8.57Q213.15 9.28 212.81 10.09Q212.46 10.91 212.27 11.77Q212.07 12.64 212.07 13.48L212.07 13.48Q212.07 14.57 212.44 15.11Q212.80 15.64 213.50 15.64L213.50 15.64Q213.84 15.64 214.23 15.51Q214.62 15.37 215.03 15.13Q215.43 14.90 215.82 14.56Q216.22 14.22 216.55 13.82L216.55 13.82Q217.04 13.23 217.43 12.48Q217.83 11.73 218.10 10.89Q218.37 10.05 218.52 9.16Q218.67 8.27 218.67 7.42L218.67 7.42Q218.67 7.08 218.65 6.85Q218.64 6.62 218.62 6.46Q218.60 6.30 218.58 6.20Q218.57 6.10 218.55 6.03L218.55 6.03Q218.72 6.12 218.92 6.24Q219.13 6.36 219.30 6.59Q219.48 6.82 219.60 7.20Q219.72 7.57 219.72 8.18L219.72 8.18Q219.72 9.16 219.48 10.10Q219.25 11.05 218.84 11.90Q218.43 12.75 217.87 13.50Q217.31 14.24 216.66 14.80L216.66 14.80Q215.82 15.54 214.87 15.95Q213.92 16.35 213.04 16.35L213.04 16.35Q211.75 16.35 211.07 15.53Q210.39 14.71 210.39 13.12L210.39 13.12Q210.39 12.26 210.58 11.31Q210.77 10.36 211.11 9.44Q211.46 8.51 211.93 7.68Q212.41 6.85 212.97 6.21Q213.54 5.57 214.19 5.19Q214.84 4.82 215.53 4.82L215.53 4.82Q215.75 4.82 215.95 4.85Q216.15 4.89 216.37 4.98ZM228.28 16.24L228.28 16.24Q227.49 16.00 227.21 15.79Q226.93 15.57 226.93 15.19L226.93 15.19Q226.93 14.77 227.12 14.01Q227.32 13.24 227.63 12.31Q227.95 11.37 228.35 10.35Q228.76 9.32 229.18 8.39Q229.60 7.45 230.00 6.67Q230.40 5.89 230.71 5.46L230.71 5.46L230.61 4.87Q230.80 4.87 231.15 4.97Q231.50 5.07 231.86 5.21Q232.22 5.35 232.49 5.49Q232.76 5.64 232.79 5.74L232.79 5.74Q232.72 6.08 232.68 6.76Q232.64 7.43 232.64 8.20L232.64 8.20Q232.64 9.73 232.76 11.19Q232.88 12.66 233.31 14.17L233.31 14.17Q233.53 13.05 233.79 11.94Q234.05 10.82 234.33 9.81Q234.61 8.79 234.89 7.92Q235.17 7.06 235.43 6.40Q235.69 5.75 235.91 5.38Q236.14 5.01 236.32 4.98L236.32 4.98Q236.47 5.01 236.66 5.10Q236.84 5.19 237.01 5.32Q237.17 5.45 237.31 5.60Q237.45 5.75 237.54 5.91L237.54 5.91Q237.09 6.09 236.65 6.76Q236.21 7.43 235.81 8.39Q235.41 9.35 235.07 10.47Q234.72 11.59 234.46 12.68Q234.21 13.76 234.06 14.69Q233.91 15.61 233.90 16.17L233.90 16.17Q233.90 16.20 233.91 16.21L233.91 16.21Q233.87 16.23 233.82 16.23Q233.77 16.23 233.73 16.23L233.73 16.23Q233.09 16.23 232.59 16.07Q232.09 15.90 231.94 15.61L231.94 15.61Q231.64 14.43 231.45 13.34Q231.25 12.25 231.12 11.16Q230.99 10.07 230.91 8.95Q230.83 7.84 230.79 6.62L230.79 6.62Q230.52 7.04 230.23 7.72Q229.94 8.40 229.66 9.21Q229.38 10.02 229.12 10.92Q228.86 11.82 228.66 12.67Q228.47 13.52 228.35 14.29Q228.24 15.05 228.24 15.61L228.24 15.61Q228.24 15.90 228.25 16.03Q228.26 16.16 228.28 16.24ZM244.85 16.24L244.85 16.24Q244.05 16.00 243.77 15.79Q243.49 15.57 243.49 15.19L243.49 15.19Q243.49 14.77 243.68 14.01Q243.88 13.24 244.19 12.31Q244.51 11.37 244.92 10.35Q245.32 9.32 245.74 8.39Q246.16 7.45 246.56 6.67Q246.96 5.89 247.27 5.46L247.27 5.46L247.17 4.87Q247.37 4.87 247.72 4.97Q248.07 5.07 248.42 5.21Q248.78 5.35 249.05 5.49Q249.33 5.64 249.35 5.74L249.35 5.74Q249.28 6.08 249.24 6.76Q249.20 7.43 249.20 8.20L249.20 8.20Q249.20 9.73 249.32 11.19Q249.44 12.66 249.87 14.17L249.87 14.17Q250.10 13.05 250.35 11.94Q250.61 10.82 250.89 9.81Q251.17 8.79 251.45 7.92Q251.73 7.06 251.99 6.40Q252.25 5.75 252.48 5.38Q252.70 5.01 252.88 4.98L252.88 4.98Q253.04 5.01 253.22 5.10Q253.40 5.19 253.57 5.32Q253.74 5.45 253.88 5.60Q254.02 5.75 254.10 5.91L254.10 5.91Q253.65 6.09 253.21 6.76Q252.77 7.43 252.37 8.39Q251.97 9.35 251.63 10.47Q251.29 11.59 251.03 12.68Q250.77 13.76 250.62 14.69Q250.47 15.61 250.46 16.17L250.46 16.17Q250.46 16.20 250.47 16.21L250.47 16.21Q250.43 16.23 250.38 16.23Q250.33 16.23 250.29 16.23L250.29 16.23Q249.65 16.23 249.15 16.07Q248.65 15.90 248.50 15.61L248.50 15.61Q248.21 14.43 248.01 13.34Q247.81 12.25 247.68 11.16Q247.55 10.07 247.47 8.95Q247.39 7.84 247.35 6.62L247.35 6.62Q247.09 7.04 246.79 7.72Q246.50 8.40 246.22 9.21Q245.94 10.02 245.68 10.92Q245.42 11.82 245.22 12.67Q245.03 13.52 244.92 14.29Q244.80 15.05 244.80 15.61L244.80 15.61Q244.80 15.90 244.81 16.03Q244.82 16.16 244.85 16.24ZM265.94 9.21L265.94 9.21Q266.41 9.21 266.66 9.46Q266.92 9.72 266.92 10.16L266.92 10.16Q266.92 10.28 266.90 10.39Q266.88 10.51 266.85 10.60L266.85 10.60Q266.67 10.57 266.45 10.55Q266.22 10.53 265.92 10.53L265.92 10.53Q265.31 10.53 264.70 10.63Q264.08 10.74 263.52 10.81L263.52 10.81Q263.20 11.55 262.93 12.24Q262.67 12.94 262.48 13.51Q262.29 14.08 262.19 14.50Q262.08 14.92 262.07 15.13L262.07 15.13Q263.20 14.90 264.36 14.73Q265.51 14.56 266.78 14.48L266.78 14.48Q266.94 14.71 267.04 14.99Q267.15 15.27 267.15 15.60L267.15 15.60Q267.15 15.68 267.15 15.78Q267.15 15.88 267.12 15.97L267.12 15.97Q266.73 15.96 266.29 15.95Q265.86 15.95 265.16 15.95L265.16 15.95Q264.70 15.95 264.28 15.97Q263.87 15.99 263.45 16.03Q263.03 16.07 262.56 16.14Q262.09 16.21 261.51 16.31L261.51 16.31Q260.86 16.06 260.26 15.08L260.26 15.08Q260.50 14.57 260.93 13.54Q261.35 12.52 262.01 10.79L262.01 10.79Q261.38 10.60 261.18 10.09L261.18 10.09Q261.25 10.02 261.59 9.92Q261.93 9.81 262.42 9.70L262.42 9.70Q262.63 9.16 262.77 8.75Q262.92 8.34 263.03 7.99Q263.14 7.63 263.24 7.29Q263.33 6.94 263.41 6.54L263.41 6.54Q262.92 6.51 262.64 6.27Q262.36 6.02 262.36 5.63L262.36 5.63Q262.36 5.52 262.39 5.36Q262.43 5.21 262.47 5.10L262.47 5.10Q262.75 5.14 263.01 5.15Q263.27 5.17 263.69 5.17L263.69 5.17Q264.57 5.17 265.34 5.12Q266.11 5.07 266.74 5.01Q267.36 4.96 267.81 4.91Q268.25 4.86 268.49 4.86L268.49 4.86Q268.81 4.86 269.07 5.19Q269.32 5.53 269.44 6.15L269.44 6.15Q269.01 6.10 268.74 6.09Q268.46 6.08 268.25 6.08L268.25 6.08Q267.48 6.08 266.85 6.15Q266.21 6.23 265.62 6.31L265.62 6.31Q265.54 6.44 265.43 6.64Q265.33 6.83 265.16 7.18Q264.99 7.53 264.75 8.06Q264.50 8.60 264.15 9.39L264.15 9.39Q264.68 9.31 265.15 9.26Q265.62 9.21 265.94 9.21ZM276.12 12.43L276.12 12.43Q276.12 11.45 276.35 10.51Q276.58 9.56 277.00 8.71Q277.42 7.87 278.00 7.16Q278.59 6.45 279.28 5.94Q279.97 5.42 280.76 5.13Q281.54 4.84 282.37 4.84L282.37 4.84Q283.33 4.84 283.87 5.25Q284.41 5.66 284.41 6.38L284.41 6.38Q284.41 6.66 284.33 6.96Q284.26 7.25 284.11 7.54Q283.96 7.83 283.77 8.09Q283.57 8.36 283.33 8.55L283.33 8.55Q282.97 8.50 282.70 8.22Q282.44 7.95 282.37 7.59L282.37 7.59Q282.86 7.18 283.14 6.74Q283.43 6.30 283.43 5.94L283.43 5.94Q283.43 5.32 282.66 5.32L282.66 5.32Q282.34 5.32 282.00 5.45Q281.65 5.59 281.30 5.82Q280.95 6.06 280.62 6.40Q280.29 6.73 280.01 7.14L280.01 7.14Q278.07 9.94 278.07 12.87L278.07 12.87Q278.07 13.90 278.39 14.53Q278.71 15.16 279.24 15.27L279.24 15.27Q279.85 15.13 280.77 14.50Q281.69 13.87 282.79 12.87L282.79 12.87Q282.93 13.01 282.95 13.16L282.95 13.16Q282.55 13.69 282.11 14.18Q281.68 14.67 281.25 15.08Q280.83 15.48 280.41 15.79Q280 16.10 279.65 16.27L279.65 16.27Q277.91 16.24 277.02 15.27Q276.12 14.31 276.12 12.43ZM293.61 6.69L293.61 6.69Q293.05 6.69 292.75 6.38Q292.45 6.06 292.45 5.61L292.45 5.61Q292.45 5.50 292.48 5.35Q292.52 5.19 292.57 5.08L292.57 5.08Q292.75 5.17 293.11 5.20Q293.47 5.24 293.94 5.24L293.94 5.24Q294.66 5.24 295.56 5.17Q296.46 5.11 297.29 5.04Q298.12 4.97 298.75 4.91Q299.38 4.84 299.56 4.84L299.56 4.84Q300.08 4.84 300.31 5.23Q300.54 5.61 300.65 6.26L300.65 6.26Q300.29 6.23 299.93 6.21Q299.57 6.19 299.32 6.19L299.32 6.19Q298.87 6.19 298.42 6.22Q297.96 6.24 297.50 6.30L297.50 6.30Q297.30 6.71 297.07 7.26Q296.83 7.81 296.60 8.41Q296.37 9.02 296.16 9.61Q295.95 10.21 295.79 10.68L295.79 10.68Q295.48 11.61 295.25 12.39Q295.02 13.17 294.85 13.85Q294.67 14.53 294.55 15.15Q294.42 15.76 294.32 16.35L294.32 16.35Q293.38 16.21 292.75 15.18L292.75 15.18Q292.87 14.74 293.03 14.23Q293.19 13.72 293.41 13.07Q293.62 12.42 293.92 11.59Q294.21 10.77 294.59 9.72L294.59 9.72Q294.73 9.32 294.88 8.90Q295.04 8.47 295.18 8.05Q295.33 7.63 295.45 7.24Q295.57 6.85 295.65 6.52L295.65 6.52Q295.06 6.59 294.54 6.64Q294.01 6.69 293.61 6.69ZM306.49 14.38L306.49 14.38Q306.49 13.87 306.65 13.07Q306.81 12.26 307.07 11.33Q307.33 10.40 307.66 9.43Q308 8.46 308.35 7.60Q308.70 6.75 309.04 6.10Q309.37 5.46 309.64 5.18L309.64 5.18Q309.78 5.19 310.01 5.29Q310.24 5.38 310.48 5.50Q310.72 5.63 310.91 5.78Q311.11 5.92 311.16 6.05L311.16 6.05Q310.76 6.41 310.36 7.15Q309.96 7.88 309.59 8.82Q309.22 9.76 308.90 10.80Q308.57 11.84 308.34 12.82Q308.10 13.80 307.96 14.64Q307.83 15.48 307.83 16.00L307.83 16.00Q307.83 16.24 307.87 16.30L307.87 16.30Q307.57 16.28 307.43 16.19Q307.29 16.10 307.21 16.00Q307.13 15.89 307.07 15.79Q307.01 15.68 306.88 15.62L306.88 15.62Q306.78 15.58 306.71 15.43Q306.64 15.27 306.59 15.09Q306.54 14.90 306.52 14.70Q306.49 14.50 306.49 14.38ZM321.93 16.07L321.93 16.07Q321.61 16.24 321.24 16.24L321.24 16.24Q320.80 16.18 320.38 16.02Q319.97 15.85 319.77 15.61L319.77 15.61Q319.66 14.92 319.59 14.35Q319.52 13.78 319.48 13.27Q319.44 12.75 319.42 12.29Q319.41 11.82 319.41 11.34L319.41 11.34Q319.41 10.71 319.42 10.01Q319.44 9.31 319.46 8.52Q319.48 7.73 319.49 6.82Q319.51 5.92 319.51 4.86L319.51 4.86Q319.69 4.86 320.05 4.96Q320.42 5.07 320.78 5.21Q321.13 5.35 321.41 5.49Q321.69 5.64 321.72 5.74L321.72 5.74Q321.58 6.13 321.48 6.76Q321.37 7.39 321.31 8.16Q321.24 8.93 321.22 9.79Q321.19 10.64 321.19 11.48L321.19 11.48Q321.19 12.11 321.20 12.61Q321.22 13.10 321.24 13.50Q321.26 13.90 321.30 14.25Q321.34 14.59 321.40 14.92L321.40 14.92Q321.79 13.73 322.26 12.54Q322.73 11.35 323.23 10.25Q323.72 9.16 324.21 8.20Q324.70 7.25 325.14 6.54Q325.58 5.84 325.93 5.43Q326.28 5.01 326.51 4.98L326.51 4.98Q326.66 5.01 326.84 5.10Q327.01 5.19 327.17 5.32Q327.32 5.45 327.45 5.60Q327.57 5.75 327.64 5.91L327.64 5.91Q327.12 6.09 326.53 6.76Q325.93 7.43 325.33 8.38Q324.73 9.32 324.16 10.44Q323.60 11.55 323.14 12.61Q322.69 13.68 322.36 14.60Q322.04 15.53 321.93 16.07ZM333.54 14.38L333.54 14.38Q333.54 13.87 333.70 13.07Q333.86 12.26 334.12 11.33Q334.38 10.40 334.71 9.43Q335.05 8.46 335.40 7.60Q335.75 6.75 336.08 6.10Q336.42 5.46 336.69 5.18L336.69 5.18Q336.83 5.19 337.06 5.29Q337.29 5.38 337.53 5.50Q337.76 5.63 337.96 5.78Q338.16 5.92 338.21 6.05L338.21 6.05Q337.81 6.41 337.41 7.15Q337.01 7.88 336.64 8.82Q336.27 9.76 335.94 10.80Q335.62 11.84 335.38 12.82Q335.15 13.80 335.01 14.64Q334.88 15.48 334.88 16.00L334.88 16.00Q334.88 16.24 334.92 16.30L334.92 16.30Q334.61 16.28 334.47 16.19Q334.33 16.10 334.26 16.00Q334.18 15.89 334.12 15.79Q334.05 15.68 333.93 15.62L333.93 15.62Q333.83 15.58 333.76 15.43Q333.69 15.27 333.64 15.09Q333.59 14.90 333.56 14.70Q333.54 14.50 333.54 14.38ZM347.30 6.69L347.30 6.69Q346.74 6.69 346.44 6.38Q346.14 6.06 346.14 5.61L346.14 5.61Q346.14 5.50 346.17 5.35Q346.21 5.19 346.26 5.08L346.26 5.08Q346.44 5.17 346.80 5.20Q347.16 5.24 347.63 5.24L347.63 5.24Q348.35 5.24 349.25 5.17Q350.15 5.11 350.98 5.04Q351.81 4.97 352.44 4.91Q353.07 4.84 353.25 4.84L353.25 4.84Q353.77 4.84 354.00 5.23Q354.23 5.61 354.34 6.26L354.34 6.26Q353.98 6.23 353.62 6.21Q353.26 6.19 353.01 6.19L353.01 6.19Q352.56 6.19 352.11 6.22Q351.65 6.24 351.19 6.30L351.19 6.30Q350.99 6.71 350.76 7.26Q350.52 7.81 350.29 8.41Q350.06 9.02 349.85 9.61Q349.64 10.21 349.48 10.68L349.48 10.68Q349.17 11.61 348.94 12.39Q348.71 13.17 348.54 13.85Q348.36 14.53 348.24 15.15Q348.11 15.76 348.01 16.35L348.01 16.35Q347.07 16.21 346.44 15.18L346.44 15.18Q346.56 14.74 346.72 14.23Q346.88 13.72 347.10 13.07Q347.31 12.42 347.61 11.59Q347.90 10.77 348.28 9.72L348.28 9.72Q348.42 9.32 348.57 8.90Q348.73 8.47 348.87 8.05Q349.02 7.63 349.14 7.24Q349.26 6.85 349.34 6.52L349.34 6.52Q348.75 6.59 348.23 6.64Q347.70 6.69 347.30 6.69ZM364.92 10.35L364.92 10.35Q365.97 9.20 366.81 7.91Q367.64 6.62 368.35 5.01L368.35 5.01Q368.72 5.05 369.05 5.21Q369.39 5.36 369.59 5.56L369.59 5.56Q368.82 6.48 368.19 7.24Q367.57 7.99 367.05 8.66Q366.53 9.32 366.09 9.93Q365.65 10.54 365.23 11.16L365.23 11.16Q365.02 11.87 364.84 12.60Q364.66 13.33 364.52 13.99Q364.38 14.66 364.30 15.22Q364.22 15.79 364.22 16.20L364.22 16.20Q364.07 16.20 363.73 16.14Q363.40 16.07 363.05 15.99Q362.70 15.90 362.41 15.82Q362.12 15.74 362.07 15.68L362.07 15.68Q362.29 15.30 362.51 14.75Q362.73 14.20 362.94 13.59Q363.15 12.98 363.34 12.36Q363.54 11.73 363.71 11.20L363.71 11.20Q363.36 10.11 363.03 9.15Q362.70 8.19 362.39 7.41Q362.08 6.64 361.80 6.08Q361.52 5.52 361.27 5.22L361.27 5.22Q361.41 5.17 361.70 5.11Q361.98 5.05 362.33 5.00Q362.67 4.94 363.03 4.91Q363.38 4.87 363.66 4.86L363.66 4.86Q363.66 5.21 363.73 5.71Q363.79 6.22 363.90 6.79Q364.00 7.36 364.14 7.95Q364.28 8.54 364.42 9.03Q364.56 9.52 364.69 9.88Q364.83 10.23 364.92 10.35ZM373.41 17.54L373.41 17.54Q373.32 17.47 373.25 17.31Q373.18 17.15 373.18 17.01L373.18 17.01Q373.88 16.41 374.19 15.86Q374.49 15.32 374.49 14.67L374.49 14.67Q374.49 14.25 374.45 13.95Q374.42 13.65 374.32 13.26L374.32 13.26Q374.67 13.29 375.01 13.38Q375.35 13.47 375.63 13.60Q375.90 13.73 376.08 13.91Q376.26 14.08 376.31 14.25L376.31 14.25Q375.65 16.58 373.41 17.54ZM401.06 9.21L401.06 9.21Q401.52 9.21 401.78 9.46Q402.04 9.72 402.04 10.16L402.04 10.16Q402.04 10.28 402.02 10.39Q402.00 10.51 401.97 10.60L401.97 10.60Q401.79 10.57 401.56 10.55Q401.34 10.53 401.03 10.53L401.03 10.53Q400.43 10.53 399.81 10.63Q399.20 10.74 398.64 10.81L398.64 10.81Q398.31 11.55 398.05 12.24Q397.78 12.94 397.59 13.51Q397.40 14.08 397.30 14.50Q397.19 14.92 397.18 15.13L397.18 15.13Q398.31 14.90 399.47 14.73Q400.62 14.56 401.90 14.48L401.90 14.48Q402.05 14.71 402.16 14.99Q402.26 15.27 402.26 15.60L402.26 15.60Q402.26 15.68 402.26 15.78Q402.26 15.88 402.23 15.97L402.23 15.97Q401.84 15.96 401.41 15.95Q400.97 15.95 400.27 15.95L400.27 15.95Q399.81 15.95 399.40 15.97Q398.99 15.99 398.57 16.03Q398.15 16.07 397.68 16.14Q397.21 16.21 396.62 16.31L396.62 16.31Q395.98 16.06 395.37 15.08L395.37 15.08Q395.61 14.57 396.04 13.54Q396.47 12.52 397.12 10.79L397.12 10.79Q396.49 10.60 396.30 10.09L396.30 10.09Q396.37 10.02 396.70 9.92Q397.04 9.81 397.53 9.70L397.53 9.70Q397.74 9.16 397.89 8.75Q398.03 8.34 398.15 7.99Q398.26 7.63 398.35 7.29Q398.44 6.94 398.52 6.54L398.52 6.54Q398.03 6.51 397.75 6.27Q397.47 6.02 397.47 5.63L397.47 5.63Q397.47 5.52 397.51 5.36Q397.54 5.21 397.59 5.10L397.59 5.10Q397.87 5.14 398.13 5.15Q398.38 5.17 398.80 5.17L398.80 5.17Q399.69 5.17 400.46 5.12Q401.23 5.07 401.85 5.01Q402.47 4.96 402.92 4.91Q403.37 4.86 403.61 4.86L403.61 4.86Q403.93 4.86 404.18 5.19Q404.43 5.53 404.56 6.15L404.56 6.15Q404.12 6.10 403.85 6.09Q403.58 6.08 403.37 6.08L403.37 6.08Q402.60 6.08 401.96 6.15Q401.32 6.23 400.74 6.31L400.74 6.31Q400.65 6.44 400.55 6.64Q400.44 6.83 400.27 7.18Q400.11 7.53 399.86 8.06Q399.62 8.60 399.27 9.39L399.27 9.39Q399.80 9.31 400.27 9.26Q400.74 9.21 401.06 9.21ZM416.58 16.21L416.58 16.21Q416.56 16.23 416.53 16.23Q416.50 16.23 416.42 16.23L416.42 16.23Q416.22 16.23 415.96 16.16Q415.70 16.10 415.46 16.01Q415.21 15.92 415.04 15.81Q414.86 15.69 414.82 15.61L414.82 15.61Q414.81 15.41 414.81 15.20Q414.81 14.99 414.81 14.80L414.81 14.80Q414.81 13.23 415.04 11.52Q415.27 9.81 415.80 7.83L415.80 7.83Q415.86 7.63 415.92 7.33Q415.98 7.03 416.05 6.68L416.05 6.68Q415.72 6.94 415.25 7.53Q414.79 8.11 414.28 8.90Q413.77 9.69 413.26 10.63Q412.75 11.58 412.33 12.55Q411.91 13.52 411.61 14.48Q411.31 15.43 411.24 16.24L411.24 16.24Q410.56 16.04 410.31 15.85Q410.05 15.65 410.05 15.37L410.05 15.37Q410.05 15.12 410.20 14.66Q410.35 14.20 410.63 13.57Q410.91 12.94 411.32 12.16Q411.73 11.38 412.22 10.49L412.22 10.49Q412.78 9.46 413.32 8.57Q413.85 7.67 414.37 6.94Q414.89 6.22 415.39 5.68Q415.88 5.15 416.37 4.87L416.37 4.87Q416.57 4.87 416.90 4.97Q417.23 5.07 417.54 5.21Q417.86 5.35 418.10 5.49Q418.35 5.64 418.38 5.74L418.38 5.74Q418.18 6.13 417.91 6.92Q417.65 7.70 417.38 8.69Q417.10 9.69 416.86 10.80Q416.61 11.91 416.47 12.94L416.47 12.94Q416.79 12.17 417.22 11.33Q417.65 10.50 418.12 9.68Q418.60 8.86 419.10 8.09Q419.59 7.32 420.07 6.69Q420.55 6.05 420.96 5.57Q421.37 5.10 421.69 4.87L421.69 4.87Q421.89 4.87 422.22 4.97Q422.55 5.07 422.86 5.21Q423.18 5.35 423.42 5.49Q423.67 5.64 423.70 5.74L423.70 5.74Q423.25 6.54 422.91 7.69Q422.58 8.83 422.35 10.09Q422.11 11.35 422.00 12.59Q421.88 13.83 421.88 14.81L421.88 14.81Q421.88 15.13 421.88 15.48Q421.88 15.83 421.90 16.21L421.90 16.21Q421.71 16.21 421.44 16.16Q421.16 16.11 420.90 16.03Q420.64 15.95 420.43 15.84Q420.22 15.74 420.14 15.61L420.14 15.61Q420.13 15.41 420.13 15.20Q420.13 14.99 420.13 14.80L420.13 14.80Q420.13 13.23 420.36 11.52Q420.59 9.81 421.12 7.83L421.12 7.83Q421.18 7.63 421.25 7.29Q421.32 6.96 421.39 6.59L421.39 6.59Q420.99 6.79 420.50 7.34Q420.00 7.90 419.49 8.69Q418.98 9.48 418.48 10.44Q417.98 11.41 417.59 12.41Q417.19 13.41 416.91 14.40Q416.64 15.39 416.58 16.21ZM440.52 7.63L440.52 7.63Q440.52 8.40 440.14 9.10Q439.75 9.80 439.10 10.32Q438.45 10.85 437.58 11.16Q436.70 11.47 435.72 11.47L435.72 11.47Q435.37 11.47 435.17 11.38Q434.97 11.28 434.71 11.02L434.71 11.02Q434.01 12.54 433.57 13.82Q433.13 15.11 432.88 16.31L432.88 16.31Q432.35 16.18 432.01 15.87Q431.68 15.55 431.40 15.08L431.40 15.08Q431.54 14.81 431.73 14.38Q431.93 13.94 432.21 13.31Q432.49 12.67 432.86 11.78Q433.23 10.89 433.73 9.70L433.73 9.70Q433.96 9.16 434.13 8.75Q434.29 8.34 434.42 7.99Q434.55 7.63 434.65 7.28Q434.76 6.93 434.87 6.51L434.87 6.51Q434.21 6.72 433.66 7Q433.10 7.28 432.74 7.59L432.74 7.59Q432.61 7.50 432.48 7.34Q432.35 7.17 432.24 6.96Q432.12 6.76 432.04 6.55Q431.96 6.34 431.94 6.17L431.94 6.17Q432.35 5.89 432.95 5.66Q433.55 5.42 434.24 5.24Q434.92 5.07 435.66 4.97Q436.39 4.87 437.07 4.87L437.07 4.87Q437.86 4.87 438.51 5.07Q439.15 5.28 439.60 5.64Q440.05 6.01 440.29 6.51Q440.52 7.01 440.52 7.63ZM438.03 5.95L438.03 5.95Q437.50 5.95 436.94 6.03L436.94 6.03L437.11 6.29Q436.97 6.47 436.76 6.83Q436.55 7.20 436.30 7.71Q436.04 8.22 435.74 8.85Q435.44 9.48 435.11 10.18L435.11 10.18Q436.20 10.18 437.09 9.97Q437.99 9.77 438.63 9.41Q439.26 9.06 439.62 8.58Q439.98 8.11 439.98 7.56L439.98 7.56Q439.98 6.83 439.49 6.39Q439.00 5.95 438.03 5.95ZM453.43 4.98L453.43 4.98Q453.70 5.10 453.98 5.27Q454.26 5.45 454.50 5.63Q454.73 5.81 454.90 5.98Q455.06 6.16 455.07 6.27L455.07 6.27Q454.83 6.22 454.59 6.20Q454.36 6.17 454.16 6.17L454.16 6.17Q453.53 6.17 452.91 6.48Q452.28 6.79 451.72 7.32Q451.16 7.85 450.69 8.57Q450.21 9.28 449.87 10.09Q449.53 10.91 449.33 11.77Q449.13 12.64 449.13 13.48L449.13 13.48Q449.13 14.57 449.50 15.11Q449.86 15.64 450.56 15.64L450.56 15.64Q450.90 15.64 451.29 15.51Q451.68 15.37 452.09 15.13Q452.49 14.90 452.89 14.56Q453.28 14.22 453.61 13.82L453.61 13.82Q454.10 13.23 454.50 12.48Q454.89 11.73 455.16 10.89Q455.43 10.05 455.58 9.16Q455.73 8.27 455.73 7.42L455.73 7.42Q455.73 7.08 455.71 6.85Q455.70 6.62 455.68 6.46Q455.66 6.30 455.64 6.20Q455.63 6.10 455.62 6.03L455.62 6.03Q455.78 6.12 455.99 6.24Q456.19 6.36 456.37 6.59Q456.54 6.82 456.66 7.20Q456.78 7.57 456.78 8.18L456.78 8.18Q456.78 9.16 456.55 10.10Q456.32 11.05 455.90 11.90Q455.49 12.75 454.93 13.50Q454.37 14.24 453.73 14.80L453.73 14.80Q452.89 15.54 451.93 15.95Q450.98 16.35 450.10 16.35L450.10 16.35Q448.81 16.35 448.13 15.53Q447.45 14.71 447.45 13.12L447.45 13.12Q447.45 12.26 447.64 11.31Q447.83 10.36 448.18 9.44Q448.52 8.51 448.99 7.68Q449.47 6.85 450.04 6.21Q450.60 5.57 451.26 5.19Q451.91 4.82 452.59 4.82L452.59 4.82Q452.82 4.82 453.01 4.85Q453.21 4.89 453.43 4.98ZM465.71 15.61L465.71 15.61Q465.64 15.04 465.61 14.36Q465.57 13.68 465.57 13.09L465.57 13.09Q465.57 12.15 465.63 11.29Q465.70 10.43 465.79 9.48Q465.88 8.54 465.99 7.43Q466.10 6.31 466.19 4.86L466.19 4.86Q466.37 4.86 466.71 4.96Q467.05 5.07 467.40 5.21Q467.75 5.35 468.02 5.49Q468.29 5.64 468.33 5.74L468.33 5.74Q468.09 6.29 467.90 7.18Q467.71 8.06 467.59 9.11Q467.46 10.16 467.39 11.27Q467.32 12.38 467.32 13.34L467.32 13.34Q467.32 13.79 467.33 14.22Q467.35 14.66 467.38 15.02L467.38 15.02Q467.67 14.59 468.06 13.78Q468.44 12.98 468.85 11.98Q469.27 10.99 469.68 9.91Q470.09 8.82 470.44 7.83Q470.79 6.85 471.04 6.05Q471.28 5.26 471.38 4.86L471.38 4.86Q471.56 4.86 471.92 4.96Q472.28 5.07 472.62 5.21Q472.96 5.35 473.23 5.49Q473.49 5.64 473.52 5.74L473.52 5.74Q473.28 6.29 473.10 7.18Q472.91 8.06 472.78 9.11Q472.65 10.16 472.58 11.27Q472.51 12.38 472.51 13.34L472.51 13.34Q472.51 13.75 472.52 14.15Q472.53 14.55 472.56 14.87L472.56 14.87Q473.00 13.71 473.49 12.56Q473.97 11.42 474.45 10.38Q474.92 9.34 475.37 8.43Q475.82 7.53 476.20 6.82Q476.57 6.12 476.85 5.66Q477.13 5.19 477.29 5.04L477.29 5.04Q477.61 5.08 477.95 5.27Q478.30 5.46 478.56 5.75L478.56 5.75Q478.16 6.08 477.64 6.81Q477.12 7.55 476.57 8.51Q476.03 9.48 475.48 10.57Q474.92 11.66 474.45 12.70Q473.97 13.73 473.60 14.63Q473.23 15.53 473.03 16.07L473.03 16.07Q472.67 16.24 472.32 16.24L472.32 16.24Q471.87 16.18 471.47 16.02Q471.07 15.85 470.90 15.61L470.90 15.61Q470.86 15.39 470.83 15.09Q470.81 14.78 470.79 14.49Q470.78 14.20 470.77 13.92Q470.76 13.65 470.76 13.45L470.76 13.45Q470.76 12.21 470.86 10.91Q470.96 9.62 471.10 8.13L471.10 8.13Q470.78 9.09 470.39 10.18Q469.99 11.27 469.57 12.34Q469.14 13.41 468.70 14.38Q468.26 15.36 467.84 16.07L467.84 16.07Q467.47 16.24 467.12 16.24L467.12 16.24Q466.68 16.18 466.28 16.02Q465.88 15.85 465.71 15.61ZM490.04 9.21L490.04 9.21Q490.50 9.21 490.76 9.46Q491.02 9.72 491.02 10.16L491.02 10.16Q491.02 10.28 491.00 10.39Q490.98 10.51 490.95 10.60L490.95 10.60Q490.77 10.57 490.55 10.55Q490.32 10.53 490.01 10.53L490.01 10.53Q489.41 10.53 488.80 10.63Q488.18 10.74 487.62 10.81L487.62 10.81Q487.30 11.55 487.03 12.24Q486.77 12.94 486.58 13.51Q486.39 14.08 486.28 14.50Q486.18 14.92 486.16 15.13L486.16 15.13Q487.30 14.90 488.45 14.73Q489.61 14.56 490.88 14.48L490.88 14.48Q491.04 14.71 491.14 14.99Q491.25 15.27 491.25 15.60L491.25 15.60Q491.25 15.68 491.25 15.78Q491.25 15.88 491.22 15.97L491.22 15.97Q490.83 15.96 490.39 15.95Q489.96 15.95 489.26 15.95L489.26 15.95Q488.80 15.95 488.38 15.97Q487.97 15.99 487.55 16.03Q487.13 16.07 486.66 16.14Q486.19 16.21 485.60 16.31L485.60 16.31Q484.96 16.06 484.36 15.08L484.36 15.08Q484.60 14.57 485.02 13.54Q485.45 12.52 486.11 10.79L486.11 10.79Q485.48 10.60 485.28 10.09L485.28 10.09Q485.35 10.02 485.69 9.92Q486.02 9.81 486.51 9.70L486.51 9.70Q486.72 9.16 486.87 8.75Q487.02 8.34 487.13 7.99Q487.24 7.63 487.33 7.29Q487.42 6.94 487.51 6.54L487.51 6.54Q487.02 6.51 486.74 6.27Q486.46 6.02 486.46 5.63L486.46 5.63Q486.46 5.52 486.49 5.36Q486.53 5.21 486.57 5.10L486.57 5.10Q486.85 5.14 487.11 5.15Q487.37 5.17 487.79 5.17L487.79 5.17Q488.67 5.17 489.44 5.12Q490.21 5.07 490.83 5.01Q491.46 4.96 491.90 4.91Q492.35 4.86 492.59 4.86L492.59 4.86Q492.91 4.86 493.16 5.19Q493.42 5.53 493.54 6.15L493.54 6.15Q493.11 6.10 492.84 6.09Q492.56 6.08 492.35 6.08L492.35 6.08Q491.58 6.08 490.95 6.15Q490.31 6.23 489.72 6.31L489.72 6.31Q489.64 6.44 489.53 6.64Q489.43 6.83 489.26 7.18Q489.09 7.53 488.85 8.06Q488.60 8.60 488.25 9.39L488.25 9.39Q488.78 9.31 489.25 9.26Q489.72 9.21 490.04 9.21ZM509.31 7.46L509.31 7.46Q509.31 8.13 509.01 8.73Q508.70 9.32 508.17 9.79Q507.64 10.26 506.93 10.58Q506.21 10.91 505.37 11.02L505.37 11.02Q505.58 11.65 505.88 12.31Q506.18 12.98 506.53 13.59Q506.88 14.21 507.26 14.73Q507.64 15.25 508.00 15.58L508.00 15.58Q507.93 15.72 507.80 15.86Q507.67 16.00 507.49 16.12Q507.32 16.24 507.13 16.32Q506.94 16.39 506.77 16.39L506.77 16.39Q506.46 16.39 506.18 16.10Q505.90 15.81 505.62 15.17Q505.33 14.53 505.02 13.52Q504.70 12.50 504.32 11.07L504.32 11.07Q504.17 11.07 504.01 11.07Q503.86 11.07 503.78 11.05L503.78 11.05Q503.68 10.99 503.57 10.85L503.57 10.85Q503.19 11.66 502.89 12.38Q502.60 13.09 502.37 13.76Q502.14 14.42 501.96 15.04Q501.79 15.67 501.66 16.31L501.66 16.31Q501.19 16.20 500.84 15.90Q500.49 15.61 500.18 15.08L500.18 15.08Q500.23 14.95 500.30 14.83Q500.36 14.71 500.46 14.50Q500.56 14.28 500.70 13.94Q500.85 13.61 501.10 13.05Q501.34 12.49 501.68 11.68Q502.03 10.86 502.52 9.70L502.52 9.70Q502.74 9.18 502.90 8.79Q503.06 8.40 503.19 8.04Q503.31 7.69 503.42 7.33Q503.52 6.97 503.64 6.51L503.64 6.51Q502.99 6.73 502.44 7.01Q501.89 7.28 501.52 7.59L501.52 7.59Q501.40 7.50 501.26 7.34Q501.13 7.17 501.02 6.96Q500.91 6.76 500.82 6.55Q500.74 6.34 500.72 6.17L500.72 6.17Q501.14 5.89 501.75 5.66Q502.36 5.42 503.05 5.24Q503.73 5.07 504.45 4.97Q505.16 4.87 505.78 4.87L505.78 4.87Q507.46 4.87 508.38 5.56Q509.31 6.26 509.31 7.46ZM505.72 6.02L505.89 6.29Q505.79 6.41 505.58 6.79Q505.37 7.17 505.10 7.69Q504.83 8.22 504.53 8.83Q504.22 9.45 503.94 10.05L503.94 10.05Q504.99 10.05 505.88 9.86Q506.76 9.66 507.40 9.30Q508.05 8.95 508.40 8.46Q508.76 7.98 508.76 7.39L508.76 7.39Q508.76 6.69 508.26 6.32Q507.75 5.95 506.70 5.95L506.70 5.95Q506.46 5.95 506.23 5.97Q505.99 5.99 505.72 6.02L505.72 6.02ZM531.96 10.35L531.96 10.35Q533.01 9.20 533.84 7.91Q534.67 6.62 535.39 5.01L535.39 5.01Q535.75 5.05 536.09 5.21Q536.42 5.36 536.62 5.56L536.62 5.56Q535.85 6.48 535.23 7.24Q534.60 7.99 534.09 8.66Q533.57 9.32 533.13 9.93Q532.69 10.54 532.27 11.16L532.27 11.16Q532.06 11.87 531.87 12.60Q531.69 13.33 531.55 13.99Q531.41 14.66 531.34 15.22Q531.26 15.79 531.26 16.20L531.26 16.20Q531.10 16.20 530.77 16.14Q530.43 16.07 530.08 15.99Q529.73 15.90 529.45 15.82Q529.16 15.74 529.10 15.68L529.10 15.68Q529.33 15.30 529.54 14.75Q529.76 14.20 529.97 13.59Q530.18 12.98 530.38 12.36Q530.57 11.73 530.74 11.20L530.74 11.20Q530.39 10.11 530.06 9.15Q529.73 8.19 529.42 7.41Q529.12 6.64 528.84 6.08Q528.56 5.52 528.30 5.22L528.30 5.22Q528.44 5.17 528.73 5.11Q529.02 5.05 529.36 5.00Q529.70 4.94 530.06 4.91Q530.42 4.87 530.70 4.86L530.70 4.86Q530.70 5.21 530.76 5.71Q530.82 6.22 530.93 6.79Q531.03 7.36 531.17 7.95Q531.31 8.54 531.45 9.03Q531.59 9.52 531.73 9.88Q531.86 10.23 531.96 10.35ZM548.60 4.98L548.60 4.98Q548.87 5.10 549.15 5.27Q549.43 5.45 549.67 5.63Q549.91 5.81 550.07 5.98Q550.23 6.16 550.24 6.27L550.24 6.27Q550.00 6.22 549.77 6.20Q549.53 6.17 549.33 6.17L549.33 6.17Q548.70 6.17 548.08 6.48Q547.46 6.79 546.90 7.32Q546.34 7.85 545.86 8.57Q545.38 9.28 545.04 10.09Q544.70 10.91 544.50 11.77Q544.31 12.64 544.31 13.48L544.31 13.48Q544.31 14.57 544.67 15.11Q545.03 15.64 545.73 15.64L545.73 15.64Q546.07 15.64 546.46 15.51Q546.85 15.37 547.26 15.13Q547.67 14.90 548.06 14.56Q548.45 14.22 548.79 13.82L548.79 13.82Q549.28 13.23 549.67 12.48Q550.06 11.73 550.33 10.89Q550.61 10.05 550.75 9.16Q550.90 8.27 550.90 7.42L550.90 7.42Q550.90 7.08 550.89 6.85Q550.87 6.62 550.85 6.46Q550.83 6.30 550.82 6.20Q550.80 6.10 550.79 6.03L550.79 6.03Q550.96 6.12 551.16 6.24Q551.36 6.36 551.54 6.59Q551.71 6.82 551.83 7.20Q551.95 7.57 551.95 8.18L551.95 8.18Q551.95 9.16 551.72 10.10Q551.49 11.05 551.08 11.90Q550.66 12.75 550.10 13.50Q549.54 14.24 548.90 14.80L548.90 14.80Q548.06 15.54 547.11 15.95Q546.15 16.35 545.27 16.35L545.27 16.35Q543.98 16.35 543.30 15.53Q542.63 14.71 542.63 13.12L542.63 13.12Q542.63 12.26 542.81 11.31Q543.00 10.36 543.35 9.44Q543.69 8.51 544.17 7.68Q544.64 6.85 545.21 6.21Q545.78 5.57 546.43 5.19Q547.08 4.82 547.76 4.82L547.76 4.82Q547.99 4.82 548.18 4.85Q548.38 4.89 548.60 4.98ZM564.65 5.75L564.65 5.75Q564.03 6.58 563.53 7.57Q563.02 8.57 562.67 9.61Q562.31 10.65 562.12 11.67Q561.93 12.68 561.93 13.57L561.93 13.57Q561.93 14.66 562.25 15.15Q562.58 15.64 563.36 15.64L563.36 15.64Q564.27 15.64 564.96 15.00Q565.64 14.36 566.24 13.24L566.24 13.24Q566.64 12.52 566.92 11.65Q567.20 10.78 567.37 9.86Q567.55 8.95 567.63 8.02Q567.71 7.08 567.71 6.23L567.71 6.23Q567.71 5.68 567.70 5.43Q567.69 5.18 567.66 5.03L567.66 5.03Q567.70 5.03 567.87 5.05Q568.04 5.08 568.25 5.12Q568.47 5.17 568.69 5.24Q568.90 5.31 569.06 5.39L569.06 5.39Q568.99 6.45 568.80 7.59Q568.61 8.72 568.30 9.83Q567.99 10.93 567.59 11.96Q567.18 12.98 566.68 13.79L566.68 13.79Q565.94 14.99 565.01 15.67Q564.09 16.35 562.83 16.35L562.83 16.35Q561.54 16.35 560.83 15.60Q560.11 14.85 560.11 13.33L560.11 13.33Q560.11 12.45 560.31 11.33Q560.50 10.22 560.83 9.07Q561.16 7.91 561.60 6.81Q562.03 5.71 562.51 4.84L562.51 4.84Q562.74 4.86 563.07 4.94Q563.39 5.03 563.70 5.16Q564.00 5.29 564.26 5.45Q564.52 5.61 564.65 5.75ZM585.55 7.46L585.55 7.46Q585.55 8.13 585.25 8.73Q584.95 9.32 584.42 9.79Q583.88 10.26 583.17 10.58Q582.46 10.91 581.62 11.02L581.62 11.02Q581.83 11.65 582.13 12.31Q582.43 12.98 582.78 13.59Q583.13 14.21 583.51 14.73Q583.88 15.25 584.25 15.58L584.25 15.58Q584.18 15.72 584.04 15.86Q583.91 16.00 583.74 16.12Q583.56 16.24 583.37 16.32Q583.18 16.39 583.02 16.39L583.02 16.39Q582.71 16.39 582.43 16.10Q582.15 15.81 581.86 15.17Q581.57 14.53 581.26 13.52Q580.94 12.50 580.57 11.07L580.57 11.07Q580.41 11.07 580.26 11.07Q580.10 11.07 580.02 11.05L580.02 11.05Q579.92 10.99 579.81 10.85L579.81 10.85Q579.43 11.66 579.14 12.38Q578.84 13.09 578.61 13.76Q578.38 14.42 578.21 15.04Q578.03 15.67 577.91 16.31L577.91 16.31Q577.43 16.20 577.08 15.90Q576.73 15.61 576.42 15.08L576.42 15.08Q576.48 14.95 576.54 14.83Q576.60 14.71 576.70 14.50Q576.80 14.28 576.95 13.94Q577.09 13.61 577.34 13.05Q577.58 12.49 577.93 11.68Q578.27 10.86 578.76 9.70L578.76 9.70Q578.98 9.18 579.14 8.79Q579.31 8.40 579.43 8.04Q579.56 7.69 579.66 7.33Q579.77 6.97 579.88 6.51L579.88 6.51Q579.24 6.73 578.68 7.01Q578.13 7.28 577.77 7.59L577.77 7.59Q577.64 7.50 577.51 7.34Q577.37 7.17 577.26 6.96Q577.15 6.76 577.07 6.55Q576.98 6.34 576.97 6.17L576.97 6.17Q577.39 5.89 578.00 5.66Q578.61 5.42 579.29 5.24Q579.98 5.07 580.69 4.97Q581.41 4.87 582.02 4.87L582.02 4.87Q583.70 4.87 584.63 5.56Q585.55 6.26 585.55 7.46ZM581.97 6.02L582.13 6.29Q582.04 6.41 581.83 6.79Q581.62 7.17 581.34 7.69Q581.07 8.22 580.77 8.83Q580.47 9.45 580.19 10.05L580.19 10.05Q581.24 10.05 582.12 9.86Q583.00 9.66 583.65 9.30Q584.29 8.95 584.65 8.46Q585.00 7.98 585.00 7.39L585.00 7.39Q585.00 6.69 584.50 6.32Q584.00 5.95 582.95 5.95L582.95 5.95Q582.71 5.95 582.47 5.97Q582.23 5.99 581.97 6.02L581.97 6.02ZM608.82 9.21L608.82 9.21Q609.28 9.21 609.54 9.46Q609.80 9.72 609.80 10.16L609.80 10.16Q609.80 10.28 609.78 10.39Q609.76 10.51 609.73 10.60L609.73 10.60Q609.55 10.57 609.32 10.55Q609.10 10.53 608.79 10.53L608.79 10.53Q608.19 10.53 607.57 10.63Q606.96 10.74 606.40 10.81L606.40 10.81Q606.07 11.55 605.81 12.24Q605.54 12.94 605.35 13.51Q605.16 14.08 605.06 14.50Q604.95 14.92 604.94 15.13L604.94 15.13Q606.07 14.90 607.23 14.73Q608.38 14.56 609.66 14.48L609.66 14.48Q609.81 14.71 609.92 14.99Q610.02 15.27 610.02 15.60L610.02 15.60Q610.02 15.68 610.02 15.78Q610.02 15.88 609.99 15.97L609.99 15.97Q609.60 15.96 609.17 15.95Q608.73 15.95 608.03 15.95L608.03 15.95Q607.57 15.95 607.16 15.97Q606.75 15.99 606.33 16.03Q605.91 16.07 605.44 16.14Q604.97 16.21 604.38 16.31L604.38 16.31Q603.74 16.06 603.13 15.08L603.13 15.08Q603.37 14.57 603.80 13.54Q604.23 12.52 604.88 10.79L604.88 10.79Q604.25 10.60 604.06 10.09L604.06 10.09Q604.13 10.02 604.46 9.92Q604.80 9.81 605.29 9.70L605.29 9.70Q605.50 9.16 605.65 8.75Q605.79 8.34 605.91 7.99Q606.02 7.63 606.11 7.29Q606.20 6.94 606.28 6.54L606.28 6.54Q605.79 6.51 605.51 6.27Q605.23 6.02 605.23 5.63L605.23 5.63Q605.23 5.52 605.27 5.36Q605.30 5.21 605.35 5.10L605.35 5.10Q605.63 5.14 605.88 5.15Q606.14 5.17 606.56 5.17L606.56 5.17Q607.45 5.17 608.22 5.12Q608.99 5.07 609.61 5.01Q610.23 4.96 610.68 4.91Q611.13 4.86 611.37 4.86L611.37 4.86Q611.69 4.86 611.94 5.19Q612.19 5.53 612.32 6.15L612.32 6.15Q611.88 6.10 611.61 6.09Q611.34 6.08 611.13 6.08L611.13 6.08Q610.36 6.08 609.72 6.15Q609.08 6.23 608.50 6.31L608.50 6.31Q608.41 6.44 608.31 6.64Q608.20 6.83 608.03 7.18Q607.87 7.53 607.62 8.06Q607.38 8.60 607.03 9.39L607.03 9.39Q607.56 9.31 608.03 9.26Q608.50 9.21 608.82 9.21ZM624.43 9.34L624.43 9.34Q624.88 9.34 625.13 9.59Q625.39 9.84 625.39 10.29L625.39 10.29Q625.39 10.40 625.38 10.52Q625.37 10.64 625.32 10.72L625.32 10.72Q625.14 10.70 624.92 10.68Q624.69 10.65 624.39 10.65L624.39 10.65Q623.76 10.65 623.13 10.77Q622.50 10.88 621.92 10.95L621.92 10.95Q621.29 12.43 620.89 13.73Q620.48 15.04 620.26 16.31L620.26 16.31Q619.78 16.20 619.42 15.90Q619.05 15.61 618.73 15.08L618.73 15.08Q618.83 14.85 618.97 14.54Q619.11 14.22 619.30 13.74Q619.50 13.26 619.77 12.56Q620.05 11.87 620.42 10.91L620.42 10.91Q619.84 10.71 619.65 10.22L619.65 10.22Q619.72 10.15 620.05 10.06Q620.37 9.97 620.83 9.86L620.83 9.86Q621.04 9.31 621.19 8.88Q621.35 8.46 621.47 8.07Q621.60 7.69 621.70 7.32Q621.81 6.94 621.89 6.52L621.89 6.52L621.82 6.52Q621.29 6.52 620.96 6.27Q620.63 6.02 620.63 5.61L620.63 5.61Q620.63 5.50 620.67 5.35Q620.70 5.19 620.76 5.08L620.76 5.08Q621.03 5.12 621.28 5.14Q621.54 5.15 621.96 5.15L621.96 5.15Q622.85 5.15 623.62 5.10Q624.39 5.05 625.01 5.00Q625.63 4.94 626.08 4.89Q626.53 4.84 626.77 4.84L626.77 4.84Q627.09 4.84 627.34 5.18Q627.59 5.52 627.73 6.13L627.73 6.13Q627.28 6.09 627.01 6.08Q626.74 6.06 626.53 6.06L626.53 6.06Q625.81 6.06 625.22 6.13Q624.62 6.19 624.09 6.27L624.09 6.27Q624.01 6.40 623.90 6.59Q623.80 6.79 623.63 7.15Q623.46 7.50 623.20 8.08Q622.94 8.65 622.55 9.53L622.55 9.53Q623.10 9.45 623.59 9.39Q624.09 9.34 624.43 9.34ZM639.14 9.34L639.14 9.34Q639.59 9.34 639.85 9.59Q640.11 9.84 640.11 10.29L640.11 10.29Q640.11 10.40 640.09 10.52Q640.08 10.64 640.04 10.72L640.04 10.72Q639.86 10.70 639.63 10.68Q639.41 10.65 639.10 10.65L639.10 10.65Q638.47 10.65 637.84 10.77Q637.21 10.88 636.64 10.95L636.64 10.95Q636.01 12.43 635.60 13.73Q635.19 15.04 634.97 16.31L634.97 16.31Q634.49 16.20 634.13 15.90Q633.77 15.61 633.44 15.08L633.44 15.08Q633.54 14.85 633.68 14.54Q633.82 14.22 634.02 13.74Q634.21 13.26 634.49 12.56Q634.76 11.87 635.14 10.91L635.14 10.91Q634.55 10.71 634.37 10.22L634.37 10.22Q634.44 10.15 634.76 10.06Q635.08 9.97 635.54 9.86L635.54 9.86Q635.75 9.31 635.91 8.88Q636.06 8.46 636.19 8.07Q636.31 7.69 636.42 7.32Q636.52 6.94 636.61 6.52L636.61 6.52L636.54 6.52Q636.01 6.52 635.68 6.27Q635.35 6.02 635.35 5.61L635.35 5.61Q635.35 5.50 635.38 5.35Q635.42 5.19 635.47 5.08L635.47 5.08Q635.74 5.12 636.00 5.14Q636.26 5.15 636.68 5.15L636.68 5.15Q637.56 5.15 638.33 5.10Q639.10 5.05 639.72 5.00Q640.35 4.94 640.79 4.89Q641.24 4.84 641.48 4.84L641.48 4.84Q641.80 4.84 642.05 5.18Q642.31 5.52 642.45 6.13L642.45 6.13Q642.00 6.09 641.72 6.08Q641.45 6.06 641.24 6.06L641.24 6.06Q640.53 6.06 639.93 6.13Q639.34 6.19 638.81 6.27L638.81 6.27Q638.72 6.40 638.62 6.59Q638.51 6.79 638.34 7.15Q638.18 7.50 637.92 8.08Q637.66 8.65 637.27 9.53L637.27 9.53Q637.81 9.45 638.31 9.39Q638.81 9.34 639.14 9.34ZM648.41 14.38L648.41 14.38Q648.41 13.87 648.57 13.07Q648.73 12.26 648.99 11.33Q649.25 10.40 649.59 9.43Q649.92 8.46 650.27 7.60Q650.62 6.75 650.96 6.10Q651.29 5.46 651.56 5.18L651.56 5.18Q651.70 5.19 651.93 5.29Q652.16 5.38 652.40 5.50Q652.64 5.63 652.83 5.78Q653.03 5.92 653.09 6.05L653.09 6.05Q652.68 6.41 652.28 7.15Q651.88 7.88 651.51 8.82Q651.14 9.76 650.82 10.80Q650.50 11.84 650.26 12.82Q650.02 13.80 649.89 14.64Q649.75 15.48 649.75 16.00L649.75 16.00Q649.75 16.24 649.80 16.30L649.80 16.30Q649.49 16.28 649.35 16.19Q649.21 16.10 649.13 16.00Q649.05 15.89 648.99 15.79Q648.93 15.68 648.80 15.62L648.80 15.62Q648.70 15.58 648.63 15.43Q648.56 15.27 648.51 15.09Q648.47 14.90 648.44 14.70Q648.41 14.50 648.41 14.38ZM659.97 12.43L659.97 12.43Q659.97 11.45 660.21 10.51Q660.44 9.56 660.86 8.71Q661.28 7.87 661.86 7.16Q662.44 6.45 663.13 5.94Q663.82 5.42 664.61 5.13Q665.39 4.84 666.22 4.84L666.22 4.84Q667.18 4.84 667.72 5.25Q668.26 5.66 668.26 6.38L668.26 6.38Q668.26 6.66 668.18 6.96Q668.11 7.25 667.96 7.54Q667.81 7.83 667.62 8.09Q667.42 8.36 667.18 8.55L667.18 8.55Q666.82 8.50 666.55 8.22Q666.29 7.95 666.22 7.59L666.22 7.59Q666.71 7.18 667.00 6.74Q667.28 6.30 667.28 5.94L667.28 5.94Q667.28 5.32 666.51 5.32L666.51 5.32Q666.19 5.32 665.85 5.45Q665.50 5.59 665.15 5.82Q664.80 6.06 664.48 6.40Q664.15 6.73 663.87 7.14L663.87 7.14Q661.92 9.94 661.92 12.87L661.92 12.87Q661.92 13.90 662.24 14.53Q662.56 15.16 663.10 15.27L663.10 15.27Q663.70 15.13 664.62 14.50Q665.55 13.87 666.64 12.87L666.64 12.87Q666.78 13.01 666.81 13.16L666.81 13.16Q666.40 13.69 665.97 14.18Q665.53 14.67 665.11 15.08Q664.68 15.48 664.26 15.79Q663.85 16.10 663.50 16.27L663.50 16.27Q661.77 16.24 660.87 15.27Q659.97 14.31 659.97 12.43ZM675.28 14.38L675.28 14.38Q675.28 13.87 675.44 13.07Q675.60 12.26 675.86 11.33Q676.12 10.40 676.45 9.43Q676.79 8.46 677.14 7.60Q677.49 6.75 677.82 6.10Q678.16 5.46 678.43 5.18L678.43 5.18Q678.57 5.19 678.80 5.29Q679.03 5.38 679.27 5.50Q679.50 5.63 679.70 5.78Q679.90 5.92 679.95 6.05L679.95 6.05Q679.55 6.41 679.15 7.15Q678.75 7.88 678.38 8.82Q678.01 9.76 677.68 10.80Q677.36 11.84 677.12 12.82Q676.89 13.80 676.75 14.64Q676.62 15.48 676.62 16.00L676.62 16.00Q676.62 16.24 676.66 16.30L676.66 16.30Q676.35 16.28 676.21 16.19Q676.07 16.10 676.00 16.00Q675.92 15.89 675.86 15.79Q675.79 15.68 675.67 15.62L675.67 15.62Q675.57 15.58 675.50 15.43Q675.43 15.27 675.38 15.09Q675.33 14.90 675.30 14.70Q675.28 14.50 675.28 14.38ZM692.05 9.21L692.05 9.21Q692.51 9.21 692.77 9.46Q693.03 9.72 693.03 10.16L693.03 10.16Q693.03 10.28 693.01 10.39Q692.99 10.51 692.96 10.60L692.96 10.60Q692.78 10.57 692.55 10.55Q692.33 10.53 692.02 10.53L692.02 10.53Q691.42 10.53 690.80 10.63Q690.19 10.74 689.63 10.81L689.63 10.81Q689.30 11.55 689.04 12.24Q688.77 12.94 688.58 13.51Q688.39 14.08 688.29 14.50Q688.18 14.92 688.17 15.13L688.17 15.13Q689.30 14.90 690.46 14.73Q691.61 14.56 692.89 14.48L692.89 14.48Q693.04 14.71 693.15 14.99Q693.25 15.27 693.25 15.60L693.25 15.60Q693.25 15.68 693.25 15.78Q693.25 15.88 693.22 15.97L693.22 15.97Q692.83 15.96 692.40 15.95Q691.96 15.95 691.26 15.95L691.26 15.95Q690.80 15.95 690.39 15.97Q689.98 15.99 689.56 16.03Q689.14 16.07 688.67 16.14Q688.20 16.21 687.61 16.31L687.61 16.31Q686.97 16.06 686.36 15.08L686.36 15.08Q686.60 14.57 687.03 13.54Q687.46 12.52 688.11 10.79L688.11 10.79Q687.48 10.60 687.29 10.09L687.29 10.09Q687.36 10.02 687.69 9.92Q688.03 9.81 688.52 9.70L688.52 9.70Q688.73 9.16 688.88 8.75Q689.02 8.34 689.14 7.99Q689.25 7.63 689.34 7.29Q689.43 6.94 689.51 6.54L689.51 6.54Q689.02 6.51 688.74 6.27Q688.46 6.02 688.46 5.63L688.46 5.63Q688.46 5.52 688.50 5.36Q688.53 5.21 688.58 5.10L688.58 5.10Q688.86 5.14 689.12 5.15Q689.37 5.17 689.79 5.17L689.79 5.17Q690.68 5.17 691.45 5.12Q692.22 5.07 692.84 5.01Q693.46 4.96 693.91 4.91Q694.36 4.86 694.60 4.86L694.60 4.86Q694.92 4.86 695.17 5.19Q695.42 5.53 695.55 6.15L695.55 6.15Q695.11 6.10 694.84 6.09Q694.57 6.08 694.36 6.08L694.36 6.08Q693.59 6.08 692.95 6.15Q692.31 6.23 691.73 6.31L691.73 6.31Q691.64 6.44 691.54 6.64Q691.43 6.83 691.26 7.18Q691.10 7.53 690.85 8.06Q690.61 8.60 690.26 9.39L690.26 9.39Q690.79 9.31 691.26 9.26Q691.73 9.21 692.05 9.21ZM703.04 16.24L703.04 16.24Q702.24 16.00 701.96 15.79Q701.68 15.57 701.68 15.19L701.68 15.19Q701.68 14.77 701.88 14.01Q702.07 13.24 702.39 12.31Q702.70 11.37 703.11 10.35Q703.51 9.32 703.93 8.39Q704.35 7.45 704.75 6.67Q705.15 5.89 705.46 5.46L705.46 5.46L705.36 4.87Q705.56 4.87 705.91 4.97Q706.26 5.07 706.61 5.21Q706.97 5.35 707.24 5.49Q707.52 5.64 707.55 5.74L707.55 5.74Q707.48 6.08 707.43 6.76Q707.39 7.43 707.39 8.20L707.39 8.20Q707.39 9.73 707.51 11.19Q707.63 12.66 708.06 14.17L708.06 14.17Q708.29 13.05 708.55 11.94Q708.81 10.82 709.09 9.81Q709.37 8.79 709.65 7.92Q709.93 7.06 710.18 6.40Q710.44 5.75 710.67 5.38Q710.89 5.01 711.07 4.98L711.07 4.98Q711.23 5.01 711.41 5.10Q711.59 5.19 711.76 5.32Q711.93 5.45 712.07 5.60Q712.21 5.75 712.29 5.91L712.29 5.91Q711.84 6.09 711.40 6.76Q710.96 7.43 710.56 8.39Q710.16 9.35 709.82 10.47Q709.48 11.59 709.22 12.68Q708.96 13.76 708.81 14.69Q708.67 15.61 708.65 16.17L708.65 16.17Q708.65 16.20 708.67 16.21L708.67 16.21Q708.62 16.23 708.57 16.23Q708.53 16.23 708.48 16.23L708.48 16.23Q707.84 16.23 707.34 16.07Q706.85 15.90 706.69 15.61L706.69 15.61Q706.40 14.43 706.20 13.34Q706.01 12.25 705.87 11.16Q705.74 10.07 705.66 8.95Q705.59 7.84 705.54 6.62L705.54 6.62Q705.28 7.04 704.98 7.72Q704.69 8.40 704.41 9.21Q704.13 10.02 703.87 10.92Q703.61 11.82 703.42 12.67Q703.22 13.52 703.11 14.29Q703.00 15.05 703.00 15.61L703.00 15.61Q703.00 15.90 703.00 16.03Q703.01 16.16 703.04 16.24ZM718.93 12.43L718.93 12.43Q718.93 11.45 719.16 10.51Q719.39 9.56 719.81 8.71Q720.23 7.87 720.81 7.16Q721.39 6.45 722.08 5.94Q722.78 5.42 723.56 5.13Q724.35 4.84 725.17 4.84L725.17 4.84Q726.14 4.84 726.68 5.25Q727.22 5.66 727.22 6.38L727.22 6.38Q727.22 6.66 727.14 6.96Q727.06 7.25 726.91 7.54Q726.77 7.83 726.57 8.09Q726.38 8.36 726.14 8.55L726.14 8.55Q725.77 8.50 725.51 8.22Q725.24 7.95 725.17 7.59L725.17 7.59Q725.66 7.18 725.95 6.74Q726.24 6.30 726.24 5.94L726.24 5.94Q726.24 5.32 725.47 5.32L725.47 5.32Q725.14 5.32 724.80 5.45Q724.46 5.59 724.11 5.82Q723.76 6.06 723.43 6.40Q723.10 6.73 722.82 7.14L722.82 7.14Q720.87 9.94 720.87 12.87L720.87 12.87Q720.87 13.90 721.20 14.53Q721.52 15.16 722.05 15.27L722.05 15.27Q722.65 15.13 723.58 14.50Q724.50 13.87 725.59 12.87L725.59 12.87Q725.73 13.01 725.76 13.16L725.76 13.16Q725.35 13.69 724.92 14.18Q724.49 14.67 724.06 15.08Q723.63 15.48 723.22 15.79Q722.81 16.10 722.46 16.27L722.46 16.27Q720.72 16.24 719.82 15.27Q718.93 14.31 718.93 12.43ZM738.63 10.35L738.63 10.35Q739.68 9.20 740.51 7.91Q741.34 6.62 742.06 5.01L742.06 5.01Q742.42 5.05 742.76 5.21Q743.09 5.36 743.29 5.56L743.29 5.56Q742.52 6.48 741.89 7.24Q741.27 7.99 740.75 8.66Q740.24 9.32 739.79 9.93Q739.35 10.54 738.93 11.16L738.93 11.16Q738.72 11.87 738.54 12.60Q738.36 13.33 738.22 13.99Q738.08 14.66 738.00 15.22Q737.93 15.79 737.93 16.20L737.93 16.20Q737.77 16.20 737.44 16.14Q737.10 16.07 736.75 15.99Q736.40 15.90 736.11 15.82Q735.83 15.74 735.77 15.68L735.77 15.68Q735.99 15.30 736.21 14.75Q736.43 14.20 736.64 13.59Q736.85 12.98 737.04 12.36Q737.24 11.73 737.41 11.20L737.41 11.20Q737.06 10.11 736.73 9.15Q736.40 8.19 736.09 7.41Q735.78 6.64 735.50 6.08Q735.22 5.52 734.97 5.22L734.97 5.22Q735.11 5.17 735.40 5.11Q735.69 5.05 736.03 5.00Q736.37 4.94 736.73 4.91Q737.09 4.87 737.37 4.86L737.37 4.86Q737.37 5.21 737.43 5.71Q737.49 6.22 737.60 6.79Q737.70 7.36 737.84 7.95Q737.98 8.54 738.12 9.03Q738.26 9.52 738.39 9.88Q738.53 10.23 738.63 10.35Z"></path></g></svg>