<svg data-v-423bf9ae="" xmlns="http://www.w3.org/2000/svg" viewBox="0 0 401.6089942950463 60" class="font"><!----><!----><!----><g data-v-423bf9ae="" id="1c27fee9-f825-4e15-886d-3df3fd996669" fill="black" transform="matrix(6.109979823280842,0,0,6.109979823280842,-1.5274915235093545,-11.670061748471603)"><path d="M3.82 1.93L3.82 1.93Q5.87 1.93 6.41 3.21L6.41 3.21Q6.56 3.53 6.56 3.63L6.56 3.63L5.69 3.63L5.69 3.89L6.62 3.89L6.62 3.88Q6.62 3.81 6.56 3.63L6.56 3.63L8.13 3.63L8.13 3.89L6.64 3.89L6.64 3.91Q6.75 4.46 6.80 5.09L6.80 5.09Q6.80 5.13 5.00 5.22L5.00 5.22L5.00 5.21Q5.00 3.58 3.88 3.58L3.88 3.58L3.69 3.58Q2.85 3.58 2.67 4.29L2.67 4.29Q2.52 4.89 2.52 5.87L2.52 5.87L2.52 7.20L2.50 7.40L1.88 7.40L1.88 7.71L2.50 7.71L2.50 10.08L5.14 10.08L5.14 7.62L6.65 7.62L6.65 10.08L5.81 10.08L5.81 11.60L4.05 11.60L4.05 11.73L2.69 11.73L2.69 11.60L1.30 11.60L1.30 10.84L2.22 10.84L2.22 10.51L0.84 10.51L0.84 9.39L0.25 9.39L0.25 8.01L0.56 8.01Q0.54 7.15 0.54 6.66L0.54 6.66Q0.54 4.42 0.76 3.84L0.76 3.84Q0.96 3.17 1.42 2.69L1.42 2.69Q2.23 1.93 3.82 1.93ZM2.63 9.59L2.63 9.59L2.71 9.59L2.71 9.93L2.91 9.93L2.91 10.04L2.63 10.04Q2.60 10.04 2.60 10.00L2.60 10.00L2.60 9.63Q2.60 9.59 2.63 9.59ZM4.69 9.60L4.69 9.59L4.79 9.59Q4.87 9.66 4.87 9.72L4.87 9.72Q4.89 9.72 4.99 9.59L4.99 9.59L5.07 9.59L5.07 9.63Q4.96 9.78 4.96 9.84L4.96 9.84Q4.98 9.84 5.09 10.01L5.09 10.01L5.09 10.04L4.99 10.04L4.87 9.91Q4.81 10.02 4.78 10.04L4.78 10.04L4.68 10.04Q4.71 9.97 4.83 9.80L4.83 9.80L4.69 9.60ZM6.04 10.19L6.04 10.19Q6.21 10.23 6.21 10.28L6.21 10.28L6.21 10.35L6.14 10.35L6.08 10.28L6.01 10.28Q5.97 10.29 5.97 10.32L5.97 10.32L5.97 10.35Q6.23 10.40 6.23 10.46L6.23 10.46L6.23 10.51Q6.23 10.64 6.08 10.64L6.08 10.64L6.01 10.64Q5.92 10.64 5.87 10.55L5.87 10.55L5.87 10.48L5.96 10.48Q5.96 10.56 6.06 10.56L6.06 10.56L6.08 10.56Q6.10 10.56 6.13 10.51L6.13 10.51Q6.13 10.49 5.89 10.40L5.89 10.40L5.88 10.36L5.88 10.28Q5.88 10.23 6.04 10.19ZM7.24 8.85L7.24 1.91L9.19 1.91L9.19 5.94L8.80 5.94L8.80 10.10L11.71 10.10L11.71 10.97L11.14 10.97L11.14 11.17L11.71 11.17L11.71 11.73L9.83 11.73L9.83 11.58L7.25 11.58Q7.24 11.42 7.24 11.33L7.24 11.33L7.24 9.14L7.73 9.14L7.73 8.85L7.24 8.85ZM11.71 11.17L11.71 10.97L12.42 10.97L12.42 11.17L11.71 11.17ZM16.21 1.95L16.21 1.95Q18.31 1.95 18.98 3.42L18.98 3.42Q19.35 4.14 19.35 6.19L19.35 6.19L19.35 6.23L18.63 6.23L18.63 6.56L19.35 6.56L19.35 10.10L18.87 10.10L18.87 11.37L17.92 11.37L17.92 11.73L14.60 11.73L14.60 11.37L14.20 11.37L14.20 10.10L13.34 10.10L13.34 9.10L13.85 9.10L13.85 8.57L13.34 8.57L13.34 9.10L12.13 9.10L12.13 8.57L13.05 8.57Q13.04 7.38 13.04 6.74L13.04 6.74L13.04 5.91Q13.04 3.58 13.82 2.80L13.82 2.80Q14.54 1.95 16.21 1.95ZM15.01 5.32L15.01 5.32L15.03 5.32L15.01 5.35L15.01 6.23L14.28 6.23L14.28 6.56L15.01 6.56Q15.00 8.67 15.00 9.75L15.00 9.75L15.00 10.10L16.63 10.10L16.63 9.56L17.38 9.56L17.38 9.54Q17.38 8.54 17.37 6.75L17.37 6.75Q17.37 6.68 17.38 6.38L17.38 6.38Q17.38 4.45 17.16 4.01L17.16 4.01Q16.93 3.58 16.30 3.58L16.30 3.58L16.06 3.58Q15.32 3.58 15.14 4.24L15.14 4.24Q15.06 4.56 15.01 5.32ZM19.35 6.56L19.35 6.23L20.53 6.23L20.53 6.56L19.35 6.56ZM20.08 6.33L20.08 1.94L21.97 1.94L21.97 7.12L21.08 7.12L21.08 7.39L21.97 7.39L21.97 8.36Q21.97 9.69 22.44 9.91L22.44 9.91Q22.68 10.06 23.04 10.06L23.04 10.06L23.62 10.06L23.62 8.34L24.13 8.34L24.13 1.94L26.00 1.94L26.00 7.96L25.33 7.96L25.33 8.39L26.00 8.39Q25.99 8.61 25.99 8.72L25.99 8.72L25.99 10.64L25.01 10.64L25.01 11.73L20.63 11.73L20.63 10.38L20.23 10.38L20.23 6.33L20.08 6.33ZM21.97 7.39L21.97 7.12L23.04 7.12L23.04 7.39L21.97 7.39ZM26.87 6.62L26.87 1.96L29.85 1.96Q31.71 1.96 32.40 3.22L32.40 3.22Q33.00 4.20 33.00 6.49L33.00 6.49L33.30 6.49L33.30 8.83L30.40 8.83L30.40 8.56L31.31 8.56L31.31 6.49L31.04 6.49L31.04 5.63Q31.04 4.19 30.40 3.79L30.40 3.79Q30.02 3.58 29.19 3.58L29.19 3.58L28.79 3.58L28.79 6.44L29.06 6.44L29.06 8.83L27.10 8.83L27.10 6.62L26.87 6.62ZM26.00 9.13L26.00 8.83L26.88 8.83L26.88 9.13L29.06 9.13L29.06 9.78L30.40 9.78L30.40 9.13L33.30 9.13L33.30 9.78L31.31 9.78L31.31 11.52L29.06 11.52L29.06 11.73L26.90 11.73Q26.87 11.73 26.87 11.70L26.87 11.70L26.87 9.13L26.00 9.13ZM29.06 9.13L29.06 8.83L30.40 8.83L30.40 9.13L29.06 9.13ZM33.30 9.13L33.30 8.83L35.22 8.83L35.22 9.13L33.30 9.13ZM40.28 1.96L40.28 1.96Q41.90 1.96 42.46 3.01L42.46 3.01Q42.84 3.80 42.84 4.56L42.84 4.56L42.83 4.56Q41.71 4.66 41.30 4.66L41.30 4.66Q41.30 4.12 40.97 3.75L40.97 3.75Q40.65 3.57 40.39 3.57L40.39 3.57L40.11 3.57Q39.42 3.57 39.27 4.11L39.27 4.11Q39.23 4.27 39.23 4.35L39.23 4.35L39.23 4.50Q39.23 5.26 40.04 5.61L40.04 5.61Q40.11 5.67 41.16 6.12L41.16 6.12Q41.72 6.38 42.20 6.76L42.20 6.76L42.20 6.77L40.48 6.77L40.48 6.97L42.75 6.97L42.75 7.24L43.03 7.24L43.03 10.21L42.47 10.21L42.47 11.73L38.12 11.73L38.12 10.21L37.10 10.21L37.10 9.18L37.68 9.18L37.68 8.83L37.10 8.83L37.10 8.59L39.09 8.59L39.09 10.21L41.13 10.21L41.13 7.77L39.60 7.77L39.60 6.97L37.71 6.97L37.71 6.77L38.62 6.77L38.62 6.76Q37.42 5.96 37.42 4.50L37.42 4.50L37.42 4.37Q37.42 3.14 38.17 2.51L38.17 2.51Q38.86 1.96 40.28 1.96ZM42.75 6.97L42.75 6.77L43.44 6.77L43.44 6.97L42.75 6.97ZM36.44 9.18L36.44 8.83L37.10 8.83L37.10 9.18L36.44 9.18ZM40.82 8.83L40.82 8.83L41.03 8.83Q41.06 8.83 41.06 8.86L41.06 8.86L41.06 8.91L40.89 8.91L40.89 8.97L41.04 8.97L41.04 9.02Q41.04 9.05 41.02 9.05L41.02 9.05L40.89 9.05L40.89 9.12L41.06 9.12L41.06 9.17Q41.06 9.19 41.03 9.19L41.03 9.19L40.82 9.19Q40.79 9.19 40.79 9.17L40.79 9.17L40.79 8.86Q40.80 8.83 40.82 8.83ZM40.74 9.31L40.74 9.31L40.80 9.31Q40.82 9.31 40.92 9.43L40.92 9.43Q40.97 9.31 41.00 9.31L41.00 9.31L41.04 9.31Q41.08 9.31 41.08 9.34L41.08 9.34Q40.93 9.50 40.93 9.68L40.93 9.68L40.89 9.68Q40.85 9.68 40.84 9.49L40.84 9.49Q40.74 9.36 40.74 9.31ZM40.69 9.79L40.69 9.79L40.76 9.79Q40.80 9.79 40.84 10.00L40.84 10.00L40.87 10.00Q40.91 9.79 40.95 9.79L40.95 9.79L41.02 9.79Q41.04 9.80 41.04 9.82L41.04 9.82L41.04 10.12Q41.04 10.16 41.02 10.16L41.02 10.16L40.97 10.16L40.97 9.95L40.95 9.95L40.89 10.16L40.84 10.16Q40.80 10.16 40.76 9.95L40.76 9.95L40.74 9.95L40.74 10.16L40.69 10.16Q40.66 10.16 40.66 10.12L40.66 10.12L40.66 9.82Q40.67 9.79 40.69 9.79ZM42.57 10.62L42.57 10.29L42.73 10.29Q42.86 10.29 42.86 10.42L42.86 10.42Q42.83 10.42 42.83 10.45L42.83 10.45Q42.88 10.51 42.88 10.56L42.88 10.56Q42.83 10.66 42.70 10.66L42.70 10.66L42.60 10.66Q42.57 10.66 42.57 10.62L42.57 10.62ZM42.76 10.37L42.66 10.37L42.66 10.43L42.73 10.43Q42.76 10.43 42.76 10.40L42.76 10.40L42.76 10.37ZM42.75 10.49L42.66 10.49L42.66 10.58L42.75 10.58Q42.78 10.58 42.78 10.54L42.78 10.54L42.78 10.53Q42.78 10.49 42.75 10.49L42.75 10.49ZM42.57 11.10L42.57 10.77L42.64 10.77Q42.67 10.77 42.78 10.99L42.78 10.99L42.79 10.99L42.79 10.77L42.88 10.77L42.88 11.10Q42.88 11.14 42.84 11.14L42.84 11.14L42.81 11.14Q42.79 11.14 42.65 10.93L42.65 10.93L42.65 11.10Q42.65 11.14 42.62 11.14L42.62 11.14L42.60 11.14Q42.57 11.14 42.57 11.10L42.57 11.10ZM44.02 1.96L44.02 1.96L45.94 1.96Q45.94 3.37 46.43 4.35L46.43 4.35Q46.96 5.64 47.15 6.39L47.15 6.39L47.15 6.41L47.17 6.41Q47.41 5.50 48.19 3.62L48.19 3.62Q48.38 2.72 48.38 1.96L48.38 1.96L50.19 1.96Q50.03 3.43 49.78 4.13L49.78 4.13L48.69 6.59L48.04 6.59L48.04 8.28L47.04 8.28L47.04 8.61L48.04 8.61L48.04 11.73L46.16 11.73Q46.14 11.73 46.14 11.70L46.14 11.70L46.14 10.17L45.83 10.17L45.83 7.46L46.40 7.46L46.40 7.21L45.79 7.21Q45.71 7.12 44.65 4.67L44.65 4.67Q44.21 3.68 44.21 3.49L44.21 3.49L45.01 3.49L45.01 3.14L44.15 3.14Q44.02 2.06 44.02 1.96ZM42.85 3.49L42.85 3.14L44.15 3.14L44.19 3.49L42.85 3.49ZM48.04 8.61L48.04 8.28L48.84 8.28L48.84 8.61L48.04 8.61ZM50.81 1.96L50.81 1.96L52.81 1.96Q52.85 1.96 53.45 3.53L53.45 3.53Q53.50 3.59 54.71 6.62L54.71 6.62L55.22 6.62L55.22 1.96L56.96 1.96L56.96 7.51L57.16 7.51L57.16 9.67L56.46 9.67L56.46 10.08L57.16 10.08L57.16 11.37L54.54 11.37L54.54 9.73L54.08 9.73Q53.14 7.44 52.81 6.56L52.81 6.56L52.81 4.92L52.56 4.92L52.56 9.93L52.17 9.93L52.17 11.66L50.53 11.66L50.53 7.94L50.83 7.94L50.83 7.92Q50.81 3.09 50.81 1.96ZM54.67 6.62L53.75 6.62L53.75 6.98L54.84 6.98Q54.71 6.62 54.67 6.62L54.67 6.62ZM56.03 6.62L55.23 6.62L55.23 6.98L54.85 6.98Q55.20 7.85 55.27 8.11L55.27 8.11L55.28 8.11L55.28 8.07Q55.23 7.18 55.23 6.98L55.23 6.98L56.03 6.98L56.03 6.62ZM54.54 11.73L54.54 11.55L57.71 11.55L57.71 11.73L54.54 11.73ZM61.67 1.93L61.67 1.93Q63.72 1.93 64.24 3.22L64.24 3.22Q64.40 3.53 64.40 3.63L64.40 3.63L63.54 3.63L63.54 3.89L64.47 3.89L64.47 3.88Q64.47 3.81 64.40 3.63L64.40 3.63L65.98 3.63L65.98 3.89L64.48 3.89L64.48 3.91Q64.60 4.46 64.65 5.09L64.65 5.09Q64.65 5.13 62.85 5.22L62.85 5.22L62.85 5.21Q62.85 3.58 61.74 3.58L61.74 3.58L61.53 3.58Q60.70 3.58 60.51 4.29L60.51 4.29Q60.37 4.89 60.37 5.87L60.37 5.87L60.37 7.21L60.35 7.40L59.72 7.40L59.72 7.71L60.35 7.71L60.35 10.08L62.98 10.08L62.98 7.62L64.50 7.62L64.50 10.08L63.66 10.08L63.66 11.60L61.90 11.60L61.90 11.73L60.53 11.73L60.53 11.60L59.14 11.60L59.14 10.84L60.07 10.84L60.07 10.51L58.68 10.51L58.68 9.39L58.09 9.39L58.09 8.00L58.41 8.00Q58.39 7.16 58.39 6.66L58.39 6.66Q58.39 4.42 58.60 3.84L58.60 3.84Q58.81 3.17 59.26 2.69L59.26 2.69Q60.07 1.93 61.67 1.93Z"></path></g><!----><!----></svg>